<svg width="56" height="56" viewBox="0 0 56 56" fill="none" xmlns="http://www.w3.org/2000/svg">
<circle cx="28" cy="28" r="27.5" fill="white" stroke="url(#paint0_linear_524_83)"/>
<path d="M26.3274 23.4505C26.4612 23.4505 26.595 23.3836 26.7288 23.3836C31.7467 22.5138 36.8316 22.1123 40.2438 22.1123C43.6559 22.1123 46.1315 23.049 46.1315 25.4576C46.1315 27.8662 43.9236 29.9403 40.6452 31.2784C37.3668 32.6165 34.1554 33.2856 30.4086 33.0849C28.9367 33.018 27.331 32.8841 25.926 32.6834C25.926 33.8208 25.926 34.9582 25.926 36.0287C25.926 40.5114 27.4648 47.6034 27.4648 47.6034C27.4648 47.6034 24.1195 43.7229 23.2497 37.1661C22.9821 35.1589 22.8483 33.6201 22.7814 32.1482C21.9116 31.9475 21.1757 31.7467 20.5735 31.4122C19.7037 31.0108 18.5663 30.5424 17.429 29.7396C15.8901 28.6691 14.8196 27.4648 14.8196 27.4648C14.8196 27.4648 11.6082 28.6691 10.7384 29.2043C9.86862 29.7396 9.86862 30.2748 10.337 30.4755C10.7384 30.6763 11.3405 30.877 11.3405 30.877C11.3405 30.877 9.80171 31.2784 8.93194 30.877C7.99526 30.4755 7.39311 29.3382 8.4636 28.4684C9.53409 27.5986 14.0168 26.4612 14.0168 26.4612C14.0168 26.4612 12.0765 24.454 11.4744 23.5843C10.8722 22.7814 9.86862 21.1757 9.86862 21.1757V22.8483C9.86862 22.8483 9.46718 21.9785 9.33337 21.1088C9.19956 20.239 9.19956 19.7706 9.19956 19.7706C9.19956 19.7706 10.1362 20.1721 10.6715 20.4397C11.2067 20.7742 11.9427 21.5771 11.9427 21.5771L10.337 20.908C10.337 20.908 11.2067 22.2462 12.411 23.5174C13.6153 24.7886 14.8196 26.1267 14.8196 26.1267C14.8196 26.1267 19.3692 24.7886 23.785 23.8519C23.9188 23.3836 23.9857 22.8483 24.1195 22.3131C25.4576 16.6261 28.2008 13.3477 28.2008 13.3477C28.2008 13.3477 26.8626 19.1016 26.3943 22.5138C26.3274 22.9152 26.3274 23.1828 26.3274 23.4505ZM28 53.2904C14.0168 53.2904 2.70972 41.9164 2.70972 28C2.70972 14.0837 14.0168 2.70972 28 2.70972C41.9833 2.70972 53.2904 14.0168 53.2904 28C53.2904 41.9833 41.9164 53.2904 28 53.2904ZM28 52.7551C41.6488 52.7551 52.7551 41.6488 52.7551 28C52.7551 14.3513 41.6488 3.24496 28 3.24496C14.3513 3.24496 3.24496 14.3513 3.24496 28C3.24496 41.6488 14.2844 52.7551 28 52.7551ZM28 49.7444C15.957 49.7444 6.25571 39.9761 6.25571 28C6.25571 16.0239 15.957 6.18881 28 6.18881C40.043 6.18881 49.7444 15.957 49.7444 27.9331C49.7444 39.9092 39.9761 49.7444 28 49.7444ZM28 49.2091C39.7085 49.2091 49.2091 39.7085 49.2091 28C49.2091 16.2916 39.7085 6.72405 28 6.72405C16.2916 6.72405 6.79096 16.2246 6.79096 27.9331C6.79096 39.6416 16.2246 49.2091 28 49.2091ZM29.1374 13.0801C28.3346 13.0801 27.7324 12.4779 27.7324 11.6751C27.7324 10.8722 28.3346 10.2701 29.1374 10.2701C29.8734 10.2701 30.5424 10.8722 30.5424 11.6751C30.5424 12.4779 29.8734 13.0801 29.1374 13.0801ZM16.0239 27.2641C16.0239 27.2641 17.2951 28.6691 18.9678 29.6058C20.6404 30.5424 22.7814 31.1446 22.7814 31.1446C22.7814 31.1446 22.8483 29.2043 22.9821 28.0669C23.1159 26.9295 23.4505 25.19 23.4505 25.19C23.4505 25.19 21.3764 25.7922 19.8376 26.1936C18.2987 26.595 16.0239 27.2641 16.0239 27.2641ZM26.3274 24.3871C26.3274 24.3871 26.2605 26.1936 26.0598 27.331C25.926 28.4684 25.9929 31.546 25.9929 31.546C25.9929 31.546 30.8101 32.1482 34.6906 31.2115C38.5711 30.2748 41.9164 27.5986 41.6488 25.2569C41.3812 22.9152 35.4266 22.9821 33.018 23.1828C30.6094 23.3836 26.3274 24.3871 26.3274 24.3871ZM21.5771 50.8149C21.3095 50.8149 21.0419 50.5472 21.0419 50.2796C21.0419 50.012 21.3095 49.7444 21.5771 49.7444C21.8447 49.7444 22.1123 50.012 22.1123 50.2796C22.0454 50.5472 21.8447 50.8149 21.5771 50.8149ZM34.9582 50.8149C34.6906 50.8149 34.423 50.5472 34.423 50.2796C34.423 50.012 34.6906 49.7444 34.9582 49.7444C35.2258 49.7444 35.4935 50.012 35.4935 50.2796C35.4935 50.5472 35.2258 50.8149 34.9582 50.8149Z" fill="#050505"/>
<path d="M26.7955 37.7683H27.197V37.7014C27.0632 37.7014 27.0632 37.5675 27.0632 37.5006V36.2963L28.2675 37.7683H28.3344V36.2963C28.3344 36.1625 28.3344 36.0956 28.4682 36.0956V36.0287H28.0668V36.0956C28.2006 36.0956 28.2006 36.2294 28.2006 36.2963V37.3668L27.1301 36.0287H26.7955V36.0956C26.9294 36.0956 26.9294 36.2963 26.9294 36.2963V37.5006C26.9294 37.5675 26.8624 37.7014 26.7955 37.7014V37.7683ZM28.602 36.3632H28.6689C28.6689 36.2294 28.7358 36.1625 28.9365 36.1625H29.2711V37.5006C29.2711 37.6345 29.2711 37.7014 29.1372 37.7014V37.7683H29.6725V37.7014C29.5387 37.7014 29.5387 37.6345 29.5387 37.5006V36.1625H29.8732C30.0739 36.1625 30.1408 36.2963 30.1408 36.3632H30.2077V36.0287H29.6725H29.2041H28.6689V36.3632H28.602ZM30.3415 36.0287V36.0956C30.4754 36.0956 30.4754 36.1625 30.4754 36.2963V37.4337C30.4754 37.5675 30.4084 37.6345 30.3415 37.6345V37.7014H31.7466V37.2999H31.6797C31.6797 37.5006 31.4789 37.5675 31.2113 37.5675H30.743V36.8316H31.0775C31.2113 36.8316 31.2113 36.8316 31.2782 36.9654H31.3451V36.564H31.2113C31.2113 36.6978 31.0775 36.6978 31.0106 36.6978H30.743V35.9618H31.2113C31.412 35.9618 31.5458 35.9618 31.6127 36.1625H31.6797V35.828C31.4789 35.828 31.6127 35.828 31.3451 35.828H30.3415V36.0287ZM32.4825 36.0287H31.9473V36.0956C32.0811 36.0956 32.0811 36.1625 32.0811 36.2963V37.4337C32.0811 37.5675 32.0811 37.6345 31.9473 37.6345V37.7014H33.2854V37.2999H33.2185C33.2185 37.4337 33.0847 37.6345 32.884 37.6345H32.3487V36.2963C32.3487 36.1625 32.4156 36.0956 32.4825 36.0956V36.0287ZM34.0214 36.0287H33.4861V36.0956C33.6199 36.0956 33.6199 36.1625 33.6199 36.2963V37.4337C33.6199 37.5675 33.6199 37.6345 33.4861 37.6345V37.7014H34.8242V37.2999H34.7573C34.7573 37.4337 34.6235 37.6345 34.4228 37.6345H33.8875V36.2963C33.8875 36.1625 33.9544 36.0956 34.0214 36.0956V36.0287ZM35.0249 36.0287V36.0956C35.1587 36.0956 35.1587 36.1625 35.1587 36.2963V37.4337C35.1587 37.5675 35.0918 37.6345 35.0249 37.6345V37.7014H36.43V37.2999H36.363C36.363 37.5006 36.1623 37.5675 35.8947 37.5675H35.3595V36.8316H35.694C35.8278 36.8316 35.8278 36.8316 35.8947 36.9654H35.9616V36.564H35.8947C35.8947 36.6978 35.7609 36.6978 35.694 36.6978H35.3595V35.9618H35.8278C36.0285 35.9618 36.1623 35.9618 36.2292 36.1625H36.2961V35.828C36.0954 35.828 36.2292 35.828 35.9616 35.828H35.0249V36.0287ZM38.0357 36.4302V36.0287H37.9688C37.9688 36.0287 37.9688 36.0287 37.9019 36.0287C37.835 36.0287 37.835 36.0287 37.7012 35.9618C37.5673 35.8949 37.5004 35.8949 37.3666 35.8949C36.8983 35.8949 36.5638 36.2963 36.5638 36.7647C36.5638 37.2999 36.8983 37.6345 37.4335 37.6345C37.7012 37.6345 37.9688 37.5006 38.1026 37.2999L38.0357 37.233C37.9019 37.3668 37.7012 37.5006 37.5004 37.5006C37.099 37.5006 36.8314 37.233 36.8314 36.6978C36.8314 36.1625 37.1659 35.8949 37.4335 35.8949C37.6343 35.8949 37.835 35.9618 37.9688 36.2294H38.0357V36.4302ZM38.1695 36.3632H38.2364C38.2364 36.2294 38.3033 36.1625 38.504 36.1625H38.8386V37.5006C38.8386 37.6345 38.8386 37.7014 38.7047 37.7014V37.7683H39.24V37.7014C39.1062 37.7014 39.1062 37.6345 39.1062 37.5006V36.1625H39.4407C39.6414 36.1625 39.7083 36.2963 39.7083 36.3632H39.7752V36.0287H39.24H38.7717H38.2364V36.3632H38.1695ZM39.976 36.0287H40.4443V36.0956C40.3105 36.0956 40.3105 36.1625 40.3105 36.2963V36.9654C40.3105 37.233 40.3774 37.4337 40.5781 37.5675C40.645 37.6345 40.7788 37.6345 40.8457 37.6345C40.9795 37.6345 41.0464 37.6345 41.1803 37.5675C41.4479 37.4337 41.4479 37.1661 41.4479 36.9654V36.2963C41.4479 36.1625 41.381 36.0956 41.3141 36.0956V36.0287H41.7155V36.0956C41.5817 36.0956 41.5817 36.2294 41.5817 36.2963V37.0323C41.5817 37.3668 41.4479 37.7683 40.9126 37.7683C40.3774 37.7683 40.1767 37.5006 40.1767 36.9654V36.2963C40.1767 36.1625 40.1767 36.0956 40.0429 36.0956V36.0287H39.976ZM42.5184 36.0287L43.1874 37.5006C43.2543 37.6345 43.2543 37.7014 43.3881 37.7014V37.7683H42.9198V37.7014C42.9867 37.7014 42.9867 37.6345 42.9867 37.6345V37.5675L42.9198 37.3668H42.05L41.9162 37.5006C41.9162 37.5675 41.9162 37.5675 41.9162 37.5675C41.9162 37.5675 41.9162 37.6345 41.9831 37.6345V37.7014H41.5817V37.6345C41.7155 37.6345 41.7824 37.5006 41.7824 37.4337L42.3176 36.2294C42.3176 36.1625 42.3176 36.1625 42.3176 36.1625C42.3176 36.1625 42.3176 36.0956 42.2507 36.0956V36.0287C42.3846 36.0956 42.4515 36.0287 42.5184 36.0287ZM42.8529 37.1661L42.5184 36.3632L42.1169 37.1661H42.8529ZM43.9903 36.0287H43.455V36.0956C43.5889 36.0956 43.5889 36.1625 43.5889 36.2963V37.4337C43.5889 37.5675 43.5889 37.6345 43.455 37.6345V37.7014H44.7932V37.2999H44.7263C44.7263 37.4337 44.5924 37.6345 44.3917 37.6345H43.8565V36.2963C43.8565 36.1625 43.9234 36.0956 43.9903 36.0956V36.0287ZM26.7955 38.8388H27.4646C27.7322 38.8388 27.9998 38.8388 28.0668 39.1064C28.0668 39.1733 28.1337 39.2402 28.1337 39.3071C28.1337 39.5747 27.9329 39.7085 27.7991 39.7754L28.1337 40.3776C28.2006 40.4445 28.2006 40.5783 28.3344 40.5783H27.9998L27.5315 39.7754H27.1301V40.3107C27.1301 40.4445 27.1301 40.5114 27.2639 40.5114V40.5783H26.7286V40.5114C26.8624 40.5114 26.8624 40.4445 26.8624 40.3107V39.1733C26.8624 39.0395 26.8624 38.9726 26.7286 38.9726V38.8388H26.7955ZM27.1301 39.6416H27.3977C27.5315 39.6416 27.866 39.6416 27.866 39.2402C27.866 38.9057 27.5984 38.9057 27.3977 38.9057H27.1301V39.6416ZM29.338 38.8388C29.9401 38.8388 30.2077 39.3071 30.2077 39.7085C30.2077 40.11 29.8732 40.5783 29.338 40.5783C28.8027 40.5783 28.4682 40.11 28.4682 39.7085C28.4682 39.3071 28.7358 38.8388 29.338 38.8388ZM29.338 38.9057C29.0034 38.9057 28.7358 39.1733 28.7358 39.7085C28.7358 40.2438 29.0034 40.5114 29.338 40.5114C29.6725 40.5114 29.9401 40.2438 29.9401 39.7085C29.9401 39.1733 29.6725 38.9057 29.338 38.9057ZM30.4084 40.5783V40.5114C30.5423 40.5114 30.5423 40.4445 30.5423 40.3107V39.374C30.5423 38.9057 31.0106 38.8388 31.1444 38.8388C31.3451 38.8388 31.7466 38.9726 31.7466 39.4409C31.7466 39.7085 31.5458 40.0431 31.0775 40.0431C31.0106 40.0431 30.8099 40.0431 30.743 39.9092V40.2438C30.743 40.3776 30.743 40.4445 30.8768 40.4445V40.5783H30.4084ZM30.8099 39.2402V39.7085C30.9437 39.8423 31.0775 39.9092 31.2113 39.9092C31.6127 39.9092 31.6127 39.6416 31.6127 39.374C31.6127 39.1733 31.6127 38.8388 31.2113 38.8388C30.9437 38.9057 30.8099 39.0395 30.8099 39.2402ZM32.0142 38.8388V38.9057C32.148 38.9057 32.148 38.9726 32.148 39.1064V40.2438C32.148 40.3776 32.0811 40.4445 32.0142 40.4445V40.5783H33.4192V40.1769H33.3523C33.3523 40.3776 33.1516 40.4445 32.884 40.4445H32.4156V39.7085H32.7501C32.884 39.7085 32.884 39.7085 32.9509 39.8423H33.0178V39.4409H32.884C32.884 39.5747 32.7501 39.5747 32.6832 39.5747H32.4156V38.8388H32.884C33.0847 38.8388 33.2185 38.8388 33.2854 39.0395H33.3523V38.7049C33.1516 38.7049 33.2854 38.7049 33.0178 38.7049H32.0142V38.8388ZM33.6868 38.8388H34.3559C34.6235 38.8388 34.8911 38.8388 34.958 39.1064C34.958 39.1733 35.0249 39.2402 35.0249 39.3071C35.0249 39.5747 34.8242 39.7085 34.6904 39.7754L35.0249 40.3776C35.0918 40.4445 35.0918 40.5783 35.2257 40.5783H34.8911L34.4228 39.7754H34.0214V40.3107C34.0214 40.4445 34.0214 40.5114 34.1552 40.5114V40.5783H33.6868V40.5114C33.8206 40.5114 33.8206 40.4445 33.8206 40.3107V39.1733C33.8206 39.0395 33.8206 38.9726 33.6868 38.9726V38.8388ZM34.0214 39.6416H34.289C34.4228 39.6416 34.7573 39.6416 34.7573 39.2402C34.7573 38.9057 34.4897 38.9057 34.289 38.9057H34.0214V39.6416ZM35.2926 39.1733H35.3595C35.3595 39.0395 35.4264 38.9726 35.6271 38.9726H35.9616V40.3107C35.9616 40.4445 35.9616 40.5114 35.8278 40.5114V40.5783H36.363V40.5114C36.2292 40.5114 36.2292 40.4445 36.2292 40.3107V38.9726H36.5638C36.7645 38.9726 36.8314 39.1064 36.8314 39.1733H36.8983V38.8388H36.363H35.8278H35.2926V39.1733ZM36.8983 38.8388V38.9057C36.9652 38.9057 37.0321 38.9057 37.1659 39.1064L37.6343 39.7754V40.3107C37.6343 40.4445 37.5673 40.5114 37.5004 40.5114V40.5783H38.0357V40.5114C37.9019 40.5114 37.9019 40.4445 37.9019 40.3107V39.7754L38.3033 39.1064C38.3702 38.9726 38.4371 38.9057 38.5709 38.9057V38.8388H38.1695V38.9057C38.2364 38.9057 38.2364 38.9057 38.2364 38.9726C38.2364 38.9726 38.2364 39.0395 38.1695 39.1064L37.835 39.6416L37.4335 39.1064V39.0395C37.4335 38.9726 37.5004 38.9726 37.5004 38.9726V38.9057H36.8983V38.8388Z" fill="#050505"/>
<path d="M5.31919 30.0073C5.31919 30.208 5.18538 30.208 5.05157 30.208C4.78395 30.208 4.44942 30.2749 4.1818 30.2749C4.1818 30.208 4.1818 30.1411 4.1818 30.0742C4.1818 29.9403 4.1818 29.8065 4.2487 29.7396C4.31561 29.6727 4.38251 29.6058 4.51632 29.6058C4.51632 29.5389 4.51632 29.5389 4.51632 29.472C4.38251 29.472 4.2487 29.472 4.11489 29.472C4.11489 29.8734 4.1818 30.3418 4.1818 30.7432C4.2487 30.7432 4.2487 30.7432 4.31561 30.7432C4.31561 30.5425 4.38251 30.5425 4.58323 30.5425C4.78395 30.5425 4.98466 30.4756 5.25229 30.4756C5.3861 30.4756 5.51991 30.4756 5.51991 30.6094C5.58681 30.6094 5.58681 30.6094 5.65372 30.6094C5.65372 30.4087 5.58681 30.208 5.58681 29.9403C5.3861 30.0073 5.3861 30.0073 5.31919 30.0073ZM4.58323 29.2713C4.65014 29.2713 4.71704 29.2713 4.78395 29.2713C4.85085 29.2713 4.91776 29.2713 4.98466 29.2713C5.453 29.1375 5.51991 28.6691 5.51991 28.5353C5.51991 28.4015 5.51991 27.9332 4.98466 27.7994C4.91776 27.7994 4.85085 27.7994 4.78395 27.7994C4.71704 27.7994 4.65014 27.7994 4.58323 27.7994C4.11489 27.9332 4.04799 28.4015 4.04799 28.5353C4.04799 28.736 4.04799 29.1375 4.58323 29.2713ZM4.71704 28.1339C4.91776 28.1339 5.31919 28.1339 5.31919 28.5353C5.31919 28.9368 4.91776 28.9368 4.71704 28.9368C4.1818 28.9368 4.11489 28.736 4.11489 28.5353C4.11489 28.3346 4.2487 28.1339 4.71704 28.1339ZM5.18538 26.3274C5.25229 26.4613 5.31919 26.662 5.31919 26.7958C5.31919 26.9296 5.25229 27.2641 4.78395 27.2641C4.31561 27.2641 4.1818 26.9965 4.1818 26.7958C4.1818 26.5951 4.2487 26.5951 4.31561 26.5951C4.44942 26.5951 4.44942 26.4613 4.44942 26.4613C4.44942 26.3944 4.38251 26.3274 4.31561 26.3274C4.1818 26.3274 4.04798 26.4613 3.98108 26.7958C3.98108 27.2641 4.2487 27.5986 4.65014 27.5986C5.11847 27.5986 5.31919 27.2641 5.3861 26.9296C5.3861 26.662 5.25229 26.4613 5.18538 26.2605C5.25229 26.2605 5.25229 26.3274 5.18538 26.3274ZM6.18896 25.9929C6.18896 25.7253 6.05515 25.5915 5.78753 25.4577C5.3861 25.1901 5.05157 24.9224 4.65014 24.6548C4.58323 24.5879 4.51632 24.521 4.44942 24.3872C4.38251 24.3872 4.38251 24.3872 4.31561 24.3872C4.31561 24.5879 4.2487 24.7217 4.2487 24.9224C4.31561 24.9224 4.31561 24.9224 4.38251 24.9224C4.38251 24.7886 4.44942 24.7886 4.51632 24.7886C4.58323 24.7886 4.65014 24.8555 4.65014 24.8555C4.85085 24.9893 5.05157 25.1231 5.25229 25.257C4.98466 25.3239 4.78395 25.3908 4.51632 25.4577C4.51632 25.4577 4.44942 25.4577 4.38251 25.4577C4.31561 25.4577 4.31561 25.3908 4.31561 25.3239C4.31561 25.3239 4.31561 25.3239 4.31561 25.257C4.2487 25.257 4.2487 25.257 4.1818 25.257C4.1818 25.5246 4.11489 25.7253 4.11489 25.9929H4.2487C4.2487 25.8591 4.38251 25.7922 4.51632 25.7253C4.85085 25.5915 5.25229 25.5246 5.58681 25.3908C5.65372 25.4577 5.72063 25.4577 5.78753 25.5246C5.85444 25.5915 5.92134 25.6584 5.92134 25.7253C5.92134 25.7922 5.85444 25.7922 5.85444 25.8591C5.85444 25.8591 5.78753 25.926 5.78753 25.9929C5.78753 26.0598 5.78753 26.1267 5.92134 26.1267C6.12206 26.2605 6.18896 26.1267 6.18896 25.9929ZM4.58323 23.9188C4.58323 23.9188 4.65014 23.7181 4.71704 23.785C4.85085 23.785 5.05157 23.9857 5.453 24.2534C5.51991 24.3203 5.65372 24.3872 5.65372 24.521C5.65372 24.521 5.65372 24.521 5.65372 24.5879C5.65372 24.6548 5.65372 24.6548 5.72063 24.6548C5.78753 24.6548 5.92134 24.5879 5.98825 24.5879C6.05515 24.5879 6.18896 24.4541 6.18896 24.3872C6.18896 24.3872 6.18897 24.3203 6.12206 24.3203C6.12206 24.3203 6.05515 24.3203 5.98825 24.3203H5.92134C5.85444 24.3203 5.78753 24.2534 5.85444 24.1196C5.92134 23.8519 5.98825 23.5843 5.98825 23.3167C5.98825 23.1829 6.05515 23.1829 6.12206 23.1829C6.18897 23.1829 6.18897 23.2498 6.25587 23.2498C6.25587 23.2498 6.25587 23.2498 6.32278 23.2498H6.38968C6.38968 23.2498 6.38968 23.1829 6.25587 22.9822C6.18897 22.9153 6.12206 22.8484 6.05515 22.8484C5.98825 22.8484 5.98825 22.9153 5.92134 23.0491C5.85444 23.1829 5.78753 23.1829 5.65372 23.1829C5.453 23.116 5.18538 23.0491 4.98466 23.0491C4.85085 23.0491 4.78395 22.9822 4.78395 22.8484H4.71704C4.65014 23.1829 4.58323 23.5843 4.44942 23.9857C4.51632 23.9188 4.58323 23.9857 4.58323 23.9188ZM4.71704 23.3836C4.71704 23.3836 4.71704 23.3167 4.71704 23.3836C5.11848 23.3836 5.453 23.4505 5.85444 23.5843C5.78753 23.7181 5.78753 23.9188 5.78753 24.0527C5.78753 24.1865 5.72063 24.1865 5.72063 24.1865C5.65372 24.1865 5.65372 24.1196 5.453 23.9857C5.11848 23.7181 4.98466 23.7181 4.85085 23.5843C4.71704 23.5174 4.71704 23.5174 4.71704 23.3836ZM5.05157 22.4469C5.11848 22.4469 5.18538 22.38 5.18538 22.38C5.18538 22.2462 5.11848 22.2462 5.05157 22.1793C4.98466 22.1124 4.98466 22.0455 4.98466 21.9786C5.05157 21.711 5.25229 21.711 5.453 21.8448C5.31919 22.3131 5.31919 22.7145 5.72063 22.8484C5.92134 22.9153 6.12206 22.7814 6.18896 22.5138C6.25587 22.3131 6.18897 22.1793 6.12206 22.0455C6.18897 22.0455 6.32278 21.9786 6.38968 21.8448C6.38968 21.7779 6.38968 21.6441 6.32278 21.5771C6.32278 21.5771 6.32278 21.5771 6.25587 21.5771V21.6441C6.18897 21.7779 6.05515 21.7779 5.98825 21.711C5.85444 21.6441 5.72063 21.6441 5.58681 21.5771C5.3861 21.5102 4.98466 21.4433 4.85085 21.9117C4.85085 22.1793 4.98466 22.38 5.05157 22.4469ZM5.65372 21.7779C5.72063 21.7779 5.72063 21.7779 5.78753 21.8448C5.98825 21.9117 6.25587 21.9786 6.18896 22.2462C6.12206 22.38 6.05515 22.5138 5.92134 22.4469C5.72063 22.4469 5.51991 22.2462 5.65372 21.7779ZM5.85444 21.0419C6.18896 21.1757 6.52349 21.2426 6.79112 21.3764C6.92493 21.4433 6.99183 21.4433 6.99183 21.6441H7.05874C7.12564 21.4433 7.19255 21.2426 7.25946 21.0419C7.25946 21.0419 7.19255 21.0419 7.19255 20.975C7.12564 21.1088 7.05874 21.1088 6.85802 21.0419C6.72421 20.975 6.5904 20.975 6.45659 20.9081C6.5904 20.8412 6.72421 20.6405 6.72421 20.5736C6.79112 20.4398 6.79112 20.239 6.72421 20.1052C6.65731 19.9045 6.45659 19.7038 6.32278 19.7038C5.85444 19.5031 5.51991 19.8376 5.3861 20.1721C5.25229 20.5736 5.3861 20.8412 5.51991 20.9081C5.65372 20.975 5.78753 20.975 5.85444 21.0419ZM5.58681 20.1721C5.72063 19.8376 5.98825 19.9045 6.32278 19.9714C6.79112 20.1052 6.79112 20.3728 6.72421 20.5736C6.5904 20.9081 6.25587 20.8412 6.18896 20.8412L5.78753 20.7074C5.72063 20.7074 5.453 20.5067 5.58681 20.1721ZM6.52349 19.5031C6.92493 19.6369 7.25945 19.4362 7.46017 19.1016C7.59398 18.834 7.52708 18.6333 7.46017 18.4326H7.39327C7.46017 18.5664 7.39327 18.7671 7.39327 18.9009C7.32636 19.0347 7.12564 19.3024 6.72421 19.1685C6.32278 18.9678 6.25587 18.7002 6.32278 18.4995C6.38968 18.3657 6.45659 18.3657 6.52349 18.3657C6.6573 18.4326 6.72421 18.2988 6.72421 18.2988C6.79112 18.2319 6.72421 18.165 6.6573 18.0981C6.52349 18.0311 6.32278 18.165 6.18896 18.4326C5.92134 18.9009 6.12206 19.3693 6.52349 19.5031ZM6.92493 17.8973C6.72421 17.7635 6.72421 17.6297 6.79112 17.3621V17.2952C7.05874 17.429 7.32636 17.5628 7.59398 17.6966C7.72779 17.7635 7.7947 17.8304 7.7278 17.9642C7.7278 17.9642 7.7947 17.9642 7.7947 18.0311C7.86161 17.8304 7.99542 17.6297 8.06232 17.4959C8.06232 17.4959 7.99542 17.4959 7.99542 17.429C7.92851 17.5628 7.7947 17.5628 7.66089 17.4959C7.39327 17.3621 7.12564 17.2283 6.85802 17.0945V17.0276C6.99183 16.8268 7.12564 16.7599 7.32636 16.8268C7.32636 16.7599 7.39327 16.7599 7.39327 16.693L6.99183 16.4923C6.72421 16.8938 6.52349 17.3621 6.32278 17.8304C6.45659 17.8973 6.5904 17.9642 6.72421 18.0311C6.85802 17.9642 6.85802 17.9642 6.92493 17.8973ZM7.59398 16.4254C7.7947 16.5592 7.99542 16.6261 8.12923 16.7599C8.26304 16.8268 8.32995 16.8938 8.26304 17.0276C8.26304 17.0276 8.32994 17.0276 8.32994 17.0945C8.46376 16.8268 8.59757 16.6261 8.73138 16.3585C8.999 15.8902 8.79828 15.6895 8.73138 15.6895C8.66447 15.6895 8.46376 15.4887 8.19613 15.8233C8.32995 15.5556 8.12923 15.4218 8.12923 15.4218C7.86161 15.2211 7.66089 15.5556 7.52708 15.7564C7.39327 15.9571 7.25945 16.2247 7.12564 16.4254C7.12564 16.4254 7.19255 16.4254 7.19255 16.4923C7.39327 16.2916 7.52708 16.3585 7.59398 16.4254ZM8.59757 15.8902C8.79828 16.024 8.73138 16.1578 8.66447 16.3585C8.59757 16.4254 8.59757 16.4923 8.53066 16.5592C8.39685 16.4923 8.19613 16.3585 8.06232 16.2916C8.12923 16.2247 8.12923 16.1578 8.19613 16.0909C8.32995 15.8902 8.46376 15.7564 8.59757 15.8902ZM7.66089 15.8233C7.7947 15.6225 7.92851 15.5556 8.06232 15.6225C8.19613 15.7564 8.19613 15.8902 8.06232 16.024C7.99542 16.0909 7.99542 16.1578 7.92851 16.2247C7.7947 16.1578 7.66089 16.0909 7.52708 15.9571C7.59398 15.9571 7.59398 15.8902 7.66089 15.8233ZM8.73138 15.3549C9.19972 15.6225 9.53425 15.3549 9.66806 15.1542C9.80187 14.9535 9.80187 14.6859 9.73496 14.4852H9.66806C9.66806 14.619 9.66806 14.8197 9.60115 15.0204C9.40043 15.288 9.13281 15.1542 8.9321 15.0873C8.86519 15.0873 8.86519 15.0204 8.79828 15.0204C8.999 14.7528 9.13281 14.4852 9.33353 14.2175C9.13281 14.0837 8.73138 14.0168 8.53066 14.3513C8.19613 14.6859 8.32994 15.0873 8.73138 15.3549ZM8.53066 14.4182C8.59757 14.2844 8.79828 14.2175 8.999 14.3513C8.86519 14.5521 8.73138 14.6859 8.66447 14.8866C8.46376 14.7528 8.46376 14.5521 8.53066 14.4182ZM9.40043 13.7492C9.60115 13.883 9.73496 14.0168 9.93568 14.1506C10.0695 14.2175 10.1364 14.2844 10.0695 14.4182L10.1364 14.4852C10.2702 14.3513 10.404 14.1506 10.5378 14.0168L10.4709 13.9499C10.404 14.0837 10.2702 14.0168 10.1364 13.9499C10.0695 13.883 10.0026 13.8161 9.93568 13.8161C10.0695 13.6154 10.2033 13.4147 10.404 13.2808C10.4709 13.3478 10.5378 13.4147 10.6047 13.4816C10.7385 13.5485 10.8055 13.6823 10.6716 13.7492L10.7385 13.8161C10.8724 13.6823 11.0062 13.4816 11.14 13.3478L11.0731 13.2808C10.9393 13.4147 10.8724 13.3478 10.7385 13.2808C10.6047 13.147 10.404 13.0132 10.2702 12.8794C10.1364 12.8125 10.1364 12.7456 10.2033 12.5449L10.1364 12.478C10.0026 12.6787 9.86877 12.8125 9.73496 13.0132L9.80187 13.0801C9.93568 12.9463 10.0026 13.0132 10.1364 13.0801C10.2033 13.147 10.2702 13.2139 10.3371 13.2139C10.2033 13.4147 10.0695 13.5485 9.86877 13.7492C9.80187 13.6823 9.73496 13.6154 9.66806 13.6154C9.53425 13.5485 9.46734 13.4816 9.60115 13.3478L9.53425 13.2808C9.40043 13.4816 9.26662 13.6154 9.13281 13.8161L9.19972 13.883C9.19972 13.6154 9.26662 13.6154 9.40043 13.7492ZM10.5378 12.2773C10.6716 12.4111 10.8724 12.5449 11.0062 12.6787C11.14 12.7456 11.14 12.8794 11.0731 12.9463L11.14 13.0132C11.2738 12.8794 11.4076 12.6787 11.5414 12.5449L11.4745 12.478C11.3407 12.6118 11.2738 12.5449 11.14 12.4111C11.0731 12.3442 11.0062 12.2773 10.9393 12.2104C11.0731 12.0096 11.2738 11.8758 11.4076 11.6751L11.6083 11.8758C11.6752 11.9427 11.7421 12.0765 11.6752 12.2104L11.7421 12.2773C11.8759 12.1435 12.0098 11.9427 12.2105 11.8089L12.1436 11.742C12.0098 11.8089 11.9428 11.8089 11.809 11.6751C11.6752 11.5413 11.4745 11.4075 11.3407 11.2068C11.2069 11.073 11.2069 11.073 11.2738 10.8722L11.2069 10.8053C11.0731 10.9392 10.8724 11.1399 10.7385 11.2737L10.8055 11.3406C10.9393 11.2068 11.0062 11.2737 11.14 11.4075C11.2069 11.4744 11.2738 11.5413 11.3407 11.6082C11.2069 11.8089 11.0062 11.9427 10.8724 12.1435L10.6716 11.9427C10.5378 11.8089 10.5378 11.742 10.6047 11.6082L10.5378 11.5413C10.404 11.6751 10.2702 11.8758 10.0695 12.0096L10.1364 12.0765C10.3371 12.1435 10.404 12.2104 10.5378 12.2773ZM11.8759 10.8722C11.9428 10.8053 11.8759 10.7384 11.8759 10.6715C11.809 10.6046 11.8759 10.4708 11.9428 10.4708C12.1436 10.2701 12.2774 10.4039 12.4781 10.6046C12.1436 10.9392 11.9428 11.3406 12.1436 11.6082C12.2774 11.742 12.545 11.742 12.7457 11.5413C12.8795 11.4075 12.9464 11.2068 12.9464 11.073C13.0133 11.1399 13.1472 11.1399 13.281 11.073C13.3479 11.0061 13.4148 10.9392 13.4148 10.8053C13.4148 10.8053 13.4148 10.8053 13.3479 10.8053C13.3479 10.8053 13.3479 10.8722 13.281 10.8722C13.1472 11.0061 13.0802 10.8722 13.0133 10.8053C12.9464 10.6715 12.8126 10.6046 12.7457 10.4708C12.6119 10.2701 12.3443 10.0025 11.9428 10.4039C11.6752 10.6715 11.6752 10.8722 11.7421 10.9392L11.8759 10.8722ZM12.6119 10.6715C12.7457 10.8053 12.9464 11.073 12.7457 11.2068C12.6119 11.2737 12.4781 11.3406 12.4112 11.2068C12.3443 11.073 12.2105 10.8722 12.6119 10.5377C12.545 10.6046 12.6119 10.6715 12.6119 10.6715ZM13.3479 9.93557C13.4148 9.93557 13.4817 9.86866 13.5486 9.86866C13.4148 10.0025 13.4148 10.1363 13.4817 10.337C13.4817 10.4708 13.5486 10.6046 13.4148 10.7384L13.4817 10.8053L13.5486 10.7384C13.8831 10.4708 13.8162 10.2701 13.7493 10.0694C13.6824 9.80176 13.7493 9.66795 13.8831 9.60104C13.8831 9.60104 13.8831 9.60104 13.95 9.60104C14.0169 9.66795 14.0838 9.73485 14.1507 9.80176C14.2176 9.93557 14.2845 10.0025 14.1507 10.1363L14.2176 10.2032C14.3515 10.0694 14.5522 9.93557 14.686 9.80176L14.6191 9.73485C14.4853 9.80176 14.4184 9.73485 14.3514 9.66795L13.8162 9.06579C13.8162 9.06579 13.7493 8.93198 13.8162 8.79817L13.7493 8.73127C13.5486 8.86508 13.3479 9.0658 13.1471 9.19961C12.7457 9.53413 12.8126 9.73485 12.8795 9.86866C13.0802 10.0025 13.281 9.93557 13.3479 9.93557ZM13.3479 9.19961C13.4148 9.1327 13.4817 9.1327 13.4817 9.06579C13.6155 9.19961 13.6824 9.33342 13.8162 9.46723C13.7493 9.53413 13.6824 9.60104 13.6155 9.60104C13.4148 9.80176 13.2141 9.66795 13.2141 9.60104C13.1471 9.60104 13.0802 9.46723 13.3479 9.19961ZM37.1663 7.05863C37.1663 7.05863 37.1663 7.12553 37.0994 7.12553C37.3001 7.19244 37.5008 7.32625 37.7015 7.39315C37.7015 7.39315 37.7015 7.32625 37.7684 7.32625C37.6346 7.25934 37.6346 7.12553 37.7015 6.99172C37.7684 6.791 37.9022 6.65719 37.9691 6.45648C38.036 6.32266 38.1029 6.25576 38.2368 6.32266C38.2368 6.32266 38.2368 6.25576 38.3037 6.25576C38.1029 6.18885 37.9022 6.05504 37.7015 5.98814C37.7015 5.98814 37.7015 6.05504 37.6346 6.05504C37.7684 6.12195 37.7684 6.18885 37.7015 6.32266C37.4339 6.38957 37.0994 6.45648 36.8317 6.52338C36.8986 6.38957 36.9655 6.18885 37.0325 6.05504C37.0994 5.92123 37.0994 5.85433 37.3001 5.92123C37.3001 5.92123 37.3001 5.85433 37.367 5.85433C37.1663 5.78742 36.9655 5.65361 36.7648 5.5867C36.7648 5.5867 36.7648 5.65361 36.6979 5.65361C36.8317 5.72051 36.8317 5.85433 36.7648 5.98814L36.4972 6.45648C36.4303 6.59029 36.3634 6.65719 36.2296 6.59029C36.2296 6.59029 36.2296 6.65719 36.1627 6.65719C36.3634 6.7241 36.5641 6.85791 36.7648 6.92482C36.7648 6.92482 36.7648 6.85791 36.8317 6.85791C36.6979 6.791 36.6979 6.65719 36.7648 6.59029C37.0325 6.52338 37.367 6.45648 37.6346 6.38957C37.5677 6.52338 37.5008 6.7241 37.4339 6.85791C37.367 6.99172 37.3001 7.05863 37.1663 7.05863ZM38.5044 6.7241C38.4375 6.92482 38.3037 7.12553 38.2368 7.25934C38.1698 7.39315 38.1029 7.46006 37.9691 7.39315C37.9691 7.39315 37.9691 7.46006 37.9022 7.46006C38.1029 7.52697 38.3037 7.66078 38.4375 7.72768C38.4375 7.72768 38.4375 7.66078 38.5044 7.66078C38.3706 7.59387 38.3706 7.46006 38.4375 7.32625C38.5044 7.25934 38.5044 7.19244 38.5713 7.05863C38.772 7.19244 38.9727 7.25934 39.1734 7.39315C39.1065 7.46006 39.1065 7.52697 39.0396 7.59387C38.9727 7.72768 38.9058 7.79459 38.772 7.72768L38.7051 7.79459C38.9058 7.9284 39.1065 7.99531 39.2403 8.12912L39.3072 8.06221C39.1734 7.99531 39.2403 7.86149 39.3072 7.72768C39.4411 7.52697 39.508 7.39315 39.6418 7.19244C39.7087 7.05863 39.7756 6.99172 39.9094 7.05863L39.9763 6.99172C39.7756 6.85791 39.5749 6.791 39.3742 6.65719L39.3072 6.7241C39.4411 6.85791 39.3742 6.92482 39.3072 7.05863L39.2403 7.39315C39.0396 7.25934 38.8389 7.12553 38.6382 7.05863C38.7051 6.99172 38.7051 6.92481 38.772 6.85791C38.8389 6.7241 38.9058 6.65719 39.0396 6.7241C39.0396 6.7241 39.0396 6.65719 39.1065 6.65719C38.9058 6.52338 38.7051 6.45648 38.5044 6.32266C38.5044 6.32266 38.5044 6.38957 38.4375 6.38957C38.5713 6.52338 38.5713 6.59029 38.5044 6.7241ZM39.9763 7.66078C40.1101 7.46006 40.3108 7.46006 40.5115 7.59387H40.5785C40.4446 7.86149 40.2439 8.06221 40.1101 8.32983C40.0432 8.46364 39.9763 8.53055 39.8425 8.46364L39.7756 8.53055C39.9763 8.66436 40.1101 8.73127 40.3108 8.86508L40.3777 8.79817C40.2439 8.73127 40.3108 8.59746 40.3777 8.46364C40.5115 8.19602 40.7123 7.99531 40.8461 7.72768C40.8461 7.72768 40.913 7.72768 40.913 7.79459C41.1137 7.9284 41.1806 8.06221 41.0468 8.32983L41.1137 8.39674C41.1806 8.26293 41.2475 8.12912 41.3813 8.06221C40.9799 7.79459 40.5785 7.52697 40.1101 7.25934C40.0432 7.39315 39.9763 7.52697 39.9094 7.66078C39.9094 7.59387 39.9763 7.66078 39.9763 7.66078ZM41.1137 8.73127C40.7792 9.19961 41.1137 9.53413 41.3144 9.66795C41.5151 9.80176 41.7828 9.86866 41.9835 9.80176V9.73485C41.8497 9.73485 41.6489 9.73485 41.4482 9.60104C41.1806 9.40032 41.3144 9.06579 41.4482 8.93198C41.4482 8.86508 41.5151 8.86508 41.5151 8.79817C41.7828 8.99889 42.0504 9.19961 42.2511 9.40032C42.3849 9.19961 42.4518 8.86508 42.1173 8.59746C41.7828 8.26293 41.3813 8.39674 41.1137 8.73127ZM42.0504 8.59746C42.1842 8.66436 42.2511 8.86508 42.0504 9.06579C41.8497 8.93198 41.7158 8.79817 41.5151 8.66436C41.7158 8.53055 41.9166 8.53055 42.0504 8.59746ZM42.6525 10.0025C42.4518 10.1363 42.318 10.1363 42.2511 10.1363H42.1842C42.1173 10.1363 42.1173 10.0694 42.1173 10.0025C42.0504 9.93557 41.9835 9.93557 41.9166 10.0025C41.8497 10.0694 41.8497 10.1363 41.9166 10.2032L41.9835 10.2701C42.1842 10.4039 42.3849 10.337 42.6525 10.2032C42.8532 10.1363 42.9871 10.0025 43.1878 9.86866C43.054 10.2032 42.9202 10.5377 42.7194 10.8722C42.8532 10.9392 42.9202 11.073 43.054 11.1399L43.1209 11.073C42.9871 11.0061 43.054 10.8722 43.1209 10.7384C43.2547 10.4039 43.3885 10.0694 43.5223 9.73485C43.3885 9.60104 43.2547 9.46723 43.1209 9.40032L43.054 9.46723C43.1878 9.60104 43.1209 9.66795 43.1209 9.66795C43.1209 9.80176 42.7863 9.93557 42.6525 10.0025ZM43.5223 11.2737C43.4554 11.2737 43.4554 11.2068 43.4554 11.1399C43.3885 11.073 43.3216 11.073 43.2547 11.1399C43.1878 11.2068 43.1878 11.2737 43.2547 11.3406L43.3216 11.4075C43.4554 11.5413 43.723 11.4744 43.9906 11.3406C44.1914 11.2737 44.3252 11.1399 44.5259 11.073C44.3921 11.4075 44.1914 11.742 43.9906 12.0765C44.0575 12.2104 44.1914 12.2773 44.2583 12.4111L44.3252 12.3442C44.1914 12.2773 44.2583 12.1435 44.3252 12.0096C44.5259 11.6751 44.6597 11.4075 44.7935 11.073C44.6597 10.9392 44.5259 10.8053 44.3921 10.6715L44.3252 10.7384C44.459 10.8722 44.3921 10.9392 44.3921 10.9392C44.3252 11.0061 43.9906 11.1399 43.8568 11.2068C43.723 11.2737 43.5892 11.3406 43.5223 11.2737ZM44.7935 12.9463C44.9273 13.147 45.1949 13.2139 45.3957 13.2139V13.147C45.2618 13.147 45.0611 13.0801 44.9273 12.9463C44.6597 12.6787 44.8604 12.4111 45.0611 12.2773C45.128 12.2773 45.128 12.2104 45.1949 12.2104C45.3957 12.478 45.5964 12.6787 45.7971 12.9463C45.9978 12.7456 46.1316 12.4111 45.864 12.1435C45.5964 11.8089 45.128 11.8089 44.8604 12.1435C44.459 12.4111 44.6597 12.8125 44.7935 12.9463ZM45.7971 12.0765C45.9309 12.2104 45.9309 12.3442 45.7302 12.5449C45.5964 12.4111 45.4626 12.2104 45.3288 12.0765C45.4626 11.8758 45.6633 11.9427 45.7971 12.0765ZM45.4626 13.4816L45.3957 13.5485C45.5295 13.6823 45.6633 13.883 45.7971 14.0168L45.864 13.9499C45.7971 13.8161 45.864 13.7492 45.9309 13.6823C45.9978 13.6154 46.1316 13.5485 46.1985 13.4816L46.2654 13.5485C46.3992 13.7492 46.3323 13.883 46.2654 14.0168C46.1316 14.2844 46.0647 14.4182 46.2654 14.6859C46.2654 14.7528 46.3323 14.7528 46.3323 14.8197C46.3323 14.8197 46.3992 14.8197 46.3992 14.7528C46.3323 14.5521 46.3323 14.5521 46.3992 14.4182C46.5331 14.1506 46.6669 13.9499 46.4661 13.6823C46.6669 13.7492 46.8676 13.6823 46.9345 13.7492C47.0014 13.8161 46.9345 13.883 46.9345 13.9499L47.0014 14.0168C47.1352 13.9499 47.2021 13.883 47.3359 13.8161C47.3359 13.8161 47.3359 13.7492 47.269 13.7492C47.1352 13.5485 47.0014 13.5485 46.7338 13.5485C46.5331 13.5485 46.3992 13.6154 46.2654 13.4147V13.3478C46.3323 13.2808 46.3992 13.2808 46.3992 13.2139C46.5331 13.147 46.6 13.0801 46.7338 13.2139L46.8007 13.147C46.6669 12.9463 46.5331 12.8125 46.3992 12.6118L46.3323 12.6787C46.3992 12.8125 46.3323 12.8794 46.2654 12.9463C46.1316 13.0801 45.9309 13.2139 45.7971 13.3478C45.5964 13.5485 45.5295 13.6154 45.4626 13.4816ZM47.2021 14.4182C47.4028 14.2844 47.5366 14.3513 47.6704 14.5521C47.6704 14.5521 47.6704 14.619 47.7374 14.619C47.4697 14.7528 47.269 14.9535 47.0014 15.0873C46.8676 15.1542 46.8007 15.2211 46.6669 15.0873L46.6 15.1542C46.7338 15.3549 46.8007 15.4887 46.9345 15.6895L47.0014 15.6225C46.9345 15.4887 47.0014 15.4218 47.1352 15.3549C47.4028 15.2211 47.6035 15.0204 47.8712 14.8866C47.8712 14.8866 47.8712 14.9535 47.9381 14.9535C48.0719 15.1542 48.0719 15.3549 47.8712 15.4887L47.9381 15.5556C48.0719 15.4887 48.2057 15.4218 48.3395 15.3549C48.0719 14.9535 47.8043 14.4852 47.5366 14.0837C47.4028 14.1506 47.269 14.2175 47.2021 14.3513C47.1352 14.3513 47.1352 14.4182 47.2021 14.4182ZM48.2057 15.8233C48.005 16.1578 47.7374 16.4254 47.5366 16.7599C47.4697 16.7599 47.3359 16.7599 47.269 16.7599C47.1352 16.7599 47.0683 16.7599 47.0014 16.693C47.0014 16.6261 47.0014 16.6261 47.0014 16.5592C47.0014 16.5592 47.0014 16.4923 47.0014 16.4254C47.0014 16.3585 46.8676 16.3585 46.8007 16.3585C46.6669 16.4254 46.7338 16.5592 46.8007 16.693C46.9345 16.8938 47.1352 16.8938 47.4697 16.8938C47.9381 16.8938 48.4064 16.8268 48.8078 16.8268C48.8747 16.8268 49.0086 16.8268 49.0755 16.9607C49.0755 16.9607 49.1424 16.9607 49.1424 16.8938C49.0755 16.7599 48.9417 16.5592 48.8747 16.4254C48.8747 16.4254 48.8078 16.4254 48.8078 16.4923C48.8747 16.6261 48.8078 16.693 48.8078 16.693C48.7409 16.693 48.674 16.693 48.674 16.693C48.4733 16.693 48.2057 16.693 48.005 16.693C48.1388 16.4923 48.2726 16.2916 48.4733 16.0909L48.5402 16.024C48.6071 16.024 48.6071 16.024 48.674 16.0909C48.674 16.0909 48.674 16.0909 48.674 16.1578L48.7409 16.0909C48.6071 15.8902 48.4733 15.6895 48.3395 15.4218L48.2726 15.4887C48.3395 15.5556 48.2726 15.6895 48.2057 15.8233ZM49.0755 17.2283C49.0086 17.2952 49.0086 17.3621 49.0086 17.3621C49.0755 17.4959 49.1424 17.429 49.2093 17.429C49.3431 17.429 49.3431 17.4959 49.41 17.5628C49.5438 17.8304 49.3431 17.8973 49.1424 18.0311C48.8747 17.5628 48.6071 17.2952 48.2726 17.429C48.0719 17.4959 48.005 17.7635 48.1388 18.0311C48.2057 18.2319 48.4064 18.2988 48.5402 18.3657C48.4733 18.4326 48.4064 18.5664 48.4733 18.7002C48.5402 18.7671 48.6071 18.834 48.674 18.9009C48.674 18.9009 48.674 18.9009 48.674 18.834L48.6071 18.7671C48.5402 18.6333 48.674 18.5664 48.7409 18.4995C48.8747 18.4326 49.0086 18.3657 49.1424 18.2988C49.3431 18.2319 49.6776 18.0311 49.4769 17.5628C49.41 17.2952 49.1424 17.1614 49.0755 17.2283ZM48.9417 18.165C48.7409 18.2319 48.4733 18.3657 48.3395 18.0981C48.2726 17.9642 48.2726 17.8304 48.4064 17.7635C48.5402 17.6966 48.7409 17.6966 49.0086 18.0981C49.0086 18.0981 49.0086 18.0981 48.9417 18.165ZM50.0121 19.1685C49.9452 19.2354 49.5438 19.2354 49.41 19.2354C49.2093 19.2354 49.0755 19.2354 49.0086 19.1685C49.0086 19.1685 49.0086 19.1685 49.0086 19.1016C49.0086 19.0347 49.0086 19.0347 49.0086 18.9678C48.9417 18.9009 48.8747 18.834 48.8747 18.9009C48.8078 18.9009 48.8078 18.9678 48.8078 19.0347C48.8078 19.1016 48.8078 19.1016 48.8078 19.1685C48.8747 19.3693 49.1424 19.3693 49.4769 19.3693C49.6776 19.3693 49.8783 19.3693 50.0791 19.3024C49.8114 19.57 49.5438 19.7707 49.2093 20.0383C49.2762 20.1721 49.3431 20.3059 49.3431 20.4397C49.3431 20.4397 49.41 20.4397 49.41 20.3728C49.3431 20.239 49.41 20.1721 49.5438 20.0383C49.8114 19.8376 50.0791 19.57 50.3467 19.3693C50.2798 19.1685 50.2129 19.0347 50.146 18.834C50.146 18.834 50.0791 18.834 50.0791 18.9009C50.0791 19.1016 50.0121 19.1685 50.0121 19.1685ZM50.2798 20.4397C50.079 20.5067 49.8783 20.5736 49.6776 20.6405C49.5438 20.7074 49.4769 20.7074 49.41 20.5736C49.41 20.5736 49.3431 20.5736 49.3431 20.6405C49.41 20.9081 49.5438 21.1757 49.6107 21.4433C49.7445 21.9117 50.079 21.9117 50.2129 21.8448C50.4805 21.7779 50.6143 21.5102 50.5474 21.1757C50.4805 21.0419 50.4136 20.9081 50.3467 20.7743H50.4136C50.5474 20.7074 50.6143 20.7074 50.7481 20.8412H50.815C50.7481 20.6405 50.6812 20.4398 50.6143 20.239C50.6143 20.239 50.5474 20.239 50.5474 20.3059C50.4805 20.3059 50.4136 20.3728 50.2798 20.4397ZM50.3467 21.0419C50.3467 21.1088 50.4136 21.3764 50.146 21.5102C49.8114 21.6441 49.6776 21.3095 49.6107 21.2426C49.6107 21.1757 49.5438 21.1088 49.5438 21.0419C49.7445 20.975 49.9452 20.9081 50.146 20.8412C50.2129 20.8412 50.2798 20.975 50.3467 21.0419ZM49.8783 22.1124H49.8114C49.8783 22.3131 49.9452 22.5138 49.9452 22.7145H50.0121C50.0121 22.5807 50.079 22.5138 50.2129 22.5138C50.2798 22.5138 50.4136 22.4469 50.4805 22.4469C50.5474 22.6476 50.6143 22.9153 50.6812 23.116C50.6143 23.116 50.4805 23.1829 50.4136 23.1829C50.2798 23.1829 50.146 23.2498 50.146 23.0491H50.0791C50.146 23.2498 50.146 23.4505 50.2129 23.6512C50.2798 23.6512 50.2798 23.6512 50.2798 23.6512C50.2798 23.5174 50.3467 23.4505 50.4805 23.4505C50.6812 23.3836 50.8819 23.3836 51.0826 23.3167C51.2164 23.3167 51.2834 23.2498 51.3503 23.4505H51.4172C51.3503 23.2498 51.3503 22.9822 51.2833 22.7814H51.2164C51.2164 22.9822 51.1495 22.9822 51.0157 23.0491C50.9488 23.0491 50.815 23.116 50.7481 23.116C50.6812 22.8484 50.6143 22.6476 50.5474 22.4469C50.6143 22.4469 50.7481 22.38 50.815 22.38C50.9488 22.3131 51.0157 22.3131 51.0826 22.5138H51.1495C51.0826 22.3131 51.0157 22.1124 50.9488 21.8448H50.8819C50.8819 22.0455 50.815 22.0455 50.6812 22.1124C50.4805 22.1793 50.2798 22.2462 50.0791 22.2462C50.0121 22.2462 49.9452 22.2462 49.8783 22.1124ZM51.0826 23.785C51.0157 23.785 50.9488 23.785 50.8819 23.785C50.815 23.785 50.7481 23.8519 50.7481 23.8519C50.2798 24.0527 50.3467 24.521 50.3467 24.6548C50.3467 24.7886 50.4805 25.19 50.9488 25.3239C51.0157 25.3239 51.0826 25.3239 51.1495 25.3239C51.2164 25.3239 51.2834 25.3239 51.3503 25.257C51.8186 25.0562 51.7517 24.5879 51.7517 24.4541C51.6848 24.2534 51.551 23.785 51.0826 23.785ZM51.6179 24.4541C51.6848 24.6548 51.6179 24.9224 51.0826 24.9893C50.8819 24.9893 50.4805 25.0562 50.4136 24.6548C50.3467 24.2534 50.7481 24.1865 50.9488 24.1196C51.4172 23.9857 51.551 24.1865 51.6179 24.4541ZM52.8222 26.4613C52.8222 26.3944 52.7553 26.2605 52.6884 26.2605C52.6215 26.2605 52.6215 26.3274 52.6215 26.3943C52.6215 26.4613 52.6215 26.4613 52.6215 26.5282V26.5951C52.6215 26.662 52.6215 26.662 52.5546 26.662C52.4877 26.662 52.3538 26.4613 52.3538 26.1936C52.3538 25.926 52.3538 25.7253 52.4877 25.7253C52.4877 25.7253 52.5546 25.7253 52.5546 25.7922V25.8591C52.5546 25.8591 52.5546 25.926 52.5546 25.9929C52.5546 26.0598 52.6215 26.1267 52.6884 26.1267C52.7553 26.1267 52.8222 26.0598 52.7553 25.926C52.7553 25.7253 52.6215 25.5915 52.4877 25.6584C52.3538 25.6584 52.22 25.8591 52.22 26.2605C52.2869 26.662 52.4207 26.8627 52.5546 26.8627C52.7553 26.7958 52.8222 26.662 52.8222 26.4613ZM51.8186 26.4613C51.8186 26.5951 51.7517 26.662 51.6179 26.662C51.4172 26.4613 51.2164 26.1936 51.0157 25.9929C51.1495 25.9929 51.3503 25.926 51.4841 25.926C51.6179 25.926 51.6848 25.926 51.7517 26.0598C51.8186 26.0598 51.8186 26.0598 51.8855 26.0598C51.8855 25.8591 51.8186 25.5915 51.8186 25.3908C51.7517 25.3908 51.7517 25.3908 51.6848 25.3908C51.6848 25.5246 51.6179 25.5915 51.4841 25.5915C51.2834 25.5915 51.0826 25.6584 50.815 25.6584C50.6812 25.6584 50.5474 25.6584 50.5474 25.5246C50.4805 25.5246 50.4805 25.5246 50.4136 25.5246C50.4136 25.7253 50.4805 25.926 50.4805 26.1936C50.5474 26.1936 50.5474 26.1936 50.6143 26.1936C50.6143 26.0598 50.6812 25.9929 50.815 25.9929C51.0157 26.1936 51.2164 26.3944 51.4172 26.662C51.2164 26.662 51.0826 26.662 50.8819 26.7289C50.7481 26.7289 50.6143 26.7289 50.6143 26.5951C50.5474 26.5951 50.5474 26.5951 50.4805 26.5951C50.4805 26.7958 50.4805 26.9965 50.5474 27.2641C50.6143 27.2641 50.6143 27.2641 50.6812 27.2641C50.6812 27.1303 50.7481 27.0634 50.9488 27.0634C51.1495 27.0634 51.3503 27.0634 51.6179 26.9965C51.7517 26.9965 51.8186 26.9965 51.8855 27.1972C51.9524 27.1972 51.9524 27.1972 52.0193 27.1972C52.0193 26.9965 52.0193 26.7289 51.9524 26.5282C51.8855 26.4613 51.8855 26.4613 51.8186 26.4613ZM50.6812 32.8842C50.2798 32.7504 49.9452 33.0849 49.8114 33.4194C49.7445 33.6871 49.8114 33.9547 49.8783 34.0885C49.8783 34.0885 49.9452 34.0885 49.9452 34.0216C49.8783 33.8878 49.8783 33.6871 49.8783 33.5533C49.9452 33.4194 50.079 33.0849 50.4805 33.2187C50.9488 33.3525 51.0157 33.6202 50.9488 33.8209C50.8819 33.9547 50.815 33.9547 50.7481 33.9547C50.6143 33.9547 50.6143 34.0216 50.5474 34.0885C50.5474 34.1554 50.5474 34.2223 50.6143 34.2892C50.7481 34.3561 50.8819 34.2223 51.0157 33.8878C51.3503 33.4194 51.0826 33.018 50.6812 32.8842ZM50.4805 34.4899C50.4136 34.423 50.3467 34.423 50.2798 34.423C50.2129 34.423 50.146 34.423 50.0791 34.423C49.5438 34.423 49.41 34.8245 49.3431 34.8914C49.3431 34.9583 49.2093 35.4266 49.6107 35.7611C49.6776 35.828 49.6776 35.828 49.7445 35.828C49.8114 35.828 49.8783 35.8949 49.9452 35.8949C50.4136 35.9619 50.6143 35.5604 50.6812 35.4266C50.815 35.2259 50.8819 34.7576 50.4805 34.4899ZM50.6143 35.2928C50.5474 35.4935 50.4136 35.6942 49.8783 35.4935C49.7445 35.4266 49.3431 35.2928 49.4769 34.8914C49.6107 34.4899 50.0121 34.6237 50.146 34.6906C50.6812 34.8914 50.6812 35.0921 50.6143 35.2928ZM50.2129 36.2964C50.079 36.1626 49.9452 36.0957 49.7445 36.0288C49.6107 35.9619 49.41 35.9619 49.2762 35.9619C49.0086 36.0288 48.8078 36.2295 48.7409 36.4302C48.5402 36.8316 48.7409 37.2331 49.0755 37.4338C49.4769 37.6345 49.8783 37.3669 50.0121 37.0323C50.0791 36.8985 50.0791 36.6978 50.0121 36.4971C50.4136 36.6978 50.4805 36.8316 50.3467 37.0992C50.3467 37.1662 50.2798 37.2331 50.2798 37.3C50.146 37.6345 50.2798 37.8352 50.4136 37.9021V37.8352C50.4136 37.7683 50.4136 37.7683 50.4136 37.6345C50.6812 37.3 50.7481 36.7647 50.2129 36.2964ZM50.0121 36.9654C49.9452 37.1662 49.6776 37.3 49.2762 37.0992C48.8078 36.8985 48.8078 36.6309 48.9417 36.4302C49.0086 36.2964 49.1424 36.0288 49.6776 36.2295C50.0791 36.4971 50.0791 36.7647 50.0121 36.9654ZM49.0086 37.5676C48.6071 37.3669 48.2726 37.5676 48.0719 37.9021C47.9381 38.1697 48.005 38.3705 48.005 38.5712H48.0719C48.005 38.4374 48.0719 38.2366 48.1388 38.1028C48.2057 37.969 48.4064 37.7014 48.8078 37.9021C49.2093 38.1028 49.2762 38.3705 49.1424 38.5712C49.0755 38.705 49.0086 38.705 48.9417 38.705C48.8078 38.6381 48.7409 38.7719 48.7409 38.7719C48.674 38.8388 48.7409 38.9057 48.8078 38.9726C48.9417 39.0395 49.1424 38.9726 49.2762 38.6381C49.5438 38.1697 49.41 37.7683 49.0086 37.5676ZM48.4733 39.1064C48.674 39.2402 48.674 39.4409 48.5402 39.6417V39.7086C48.2726 39.5748 48.005 39.374 47.8043 39.2402C47.6704 39.1733 47.6035 39.1064 47.6704 38.9726L47.6035 38.9057C47.4697 39.1064 47.4028 39.2402 47.269 39.4409L47.3359 39.5079C47.4028 39.374 47.5366 39.4409 47.6704 39.5079C47.9381 39.6417 48.2057 39.8424 48.4064 39.9762V40.0431C48.2726 40.2438 48.1388 40.3107 47.9381 40.2438L47.8712 40.3107L48.2057 40.5114C48.4733 40.11 48.7409 39.7086 48.9417 39.2402C48.8078 39.1733 48.674 39.1064 48.5402 39.0395C48.5402 39.0395 48.5402 39.1064 48.4733 39.1064ZM47.7374 40.5783C47.5366 40.4445 47.4028 40.3776 47.2021 40.2438C47.0683 40.1769 47.0014 40.11 47.0683 39.9762L47.0014 39.9093C46.8676 40.11 46.7338 40.3776 46.5331 40.5783C46.1985 40.9798 46.3992 41.1805 46.4661 41.2474C46.5331 41.2474 46.7338 41.4481 47.0014 41.1136C46.8676 41.3812 47.0014 41.515 47.0683 41.515C47.3359 41.7157 47.5366 41.3812 47.6704 41.1805C47.8043 40.9798 47.9381 40.7122 48.1388 40.5114L48.0719 40.4445C47.9381 40.7122 47.8043 40.6452 47.7374 40.5783ZM46.6669 40.9798C46.5331 40.846 46.5331 40.7122 46.6669 40.5114C46.7338 40.4445 46.7338 40.3776 46.8007 40.3107C46.9345 40.4445 47.1352 40.5114 47.269 40.6452C47.2021 40.7122 47.2021 40.7791 47.1352 40.846C47.0014 41.0467 46.8676 41.1136 46.6669 40.9798ZM47.6035 41.1805C47.4697 41.3812 47.3359 41.4481 47.2021 41.3143C47.0683 41.1805 47.0683 41.0467 47.2021 40.9129C47.269 40.846 47.269 40.7791 47.3359 40.7122C47.4697 40.7791 47.6035 40.9129 47.7374 40.9798C47.7374 41.0467 47.6704 41.1136 47.6035 41.1805ZM46.6 41.5819C46.1316 41.2474 45.7971 41.515 45.6633 41.7157C45.5295 41.9165 45.4626 42.1841 45.5295 42.3848H45.5964C45.5964 42.251 45.5964 42.0503 45.7302 41.9165C45.9309 41.6488 46.2654 41.7826 46.3992 41.9165C46.4661 41.9165 46.4661 41.9834 46.5331 41.9834C46.3323 42.251 46.1316 42.4517 45.9309 42.7193C46.1316 42.92 46.4661 42.92 46.7338 42.6524C47.0014 42.251 46.9345 41.8495 46.6 41.5819ZM46.6669 42.5186C46.6 42.6524 46.3992 42.7193 46.1985 42.5186C46.3323 42.3848 46.4661 42.1841 46.6 42.0503C46.8007 42.1841 46.8007 42.3848 46.6669 42.5186ZM45.7971 43.1208C45.6633 42.9869 45.4626 42.8531 45.3288 42.7193C45.1949 42.6524 45.1949 42.5186 45.2618 42.4517L45.1949 42.3848C45.0611 42.5186 44.9273 42.7193 44.7935 42.8531L44.8604 42.92C44.9942 42.7862 45.0611 42.8531 45.1949 42.9869L45.3957 43.1877C45.2618 43.3884 45.0611 43.5222 44.9273 43.7229C44.8604 43.656 44.7935 43.5891 44.7266 43.5222C44.5928 43.3215 44.5259 43.2546 44.5928 43.1208L44.5259 43.0538C44.3921 43.1877 44.2583 43.3884 44.1245 43.5222L44.1914 43.5891C44.3252 43.5222 44.3921 43.5222 44.5259 43.656C44.6597 43.7898 44.8604 43.9236 44.9942 44.1243C45.128 44.1912 45.128 44.2581 45.0611 44.4589L45.128 44.5258C45.2618 44.392 45.3957 44.1912 45.5964 44.0574L45.5295 43.9905C45.3957 44.1243 45.3288 44.0574 45.1949 43.9236C45.128 43.8567 45.0611 43.7898 44.9942 43.7229C45.128 43.5222 45.3288 43.3884 45.4626 43.1877C45.5295 43.2546 45.5964 43.3215 45.6633 43.3884C45.7971 43.5222 45.7971 43.5222 45.7302 43.7229L45.7971 43.7898C45.9309 43.656 46.0647 43.4553 46.1985 43.3215L46.1316 43.2546C45.9978 43.2546 45.9309 43.1877 45.7971 43.1208ZM44.5928 44.4589C44.459 44.3251 44.2583 44.1912 44.1245 43.9905C43.9906 43.8567 43.9906 43.7898 44.0575 43.7229L43.9906 43.656C43.8568 43.7898 43.723 43.9236 43.5892 44.0574L43.6561 44.1243C43.7899 44.0574 43.8568 44.0574 43.9237 44.1912L44.1245 44.392C43.9906 44.5258 43.7899 44.7265 43.6561 44.8603C43.5892 44.7934 43.5223 44.7265 43.4554 44.6596C43.3885 44.5927 43.3216 44.4589 43.3885 44.3251L43.3216 44.2581C43.1878 44.392 43.054 44.5258 42.8532 44.6596L42.9202 44.7265C43.054 44.6596 43.1209 44.7265 43.1878 44.7934C43.3216 44.9272 43.4554 45.1279 43.6561 45.2617C43.723 45.3955 43.7899 45.4625 43.723 45.5963L43.7899 45.6632C43.9237 45.5294 44.1245 45.3955 44.2583 45.1948L44.1914 45.1279C44.0575 45.1948 43.9906 45.1279 43.8568 45.061L43.6561 44.8603C43.8568 44.7265 43.9906 44.5258 44.1245 44.392C44.1914 44.4589 44.2583 44.5258 44.3252 44.5927C44.459 44.7265 44.459 44.7934 44.3921 44.9272L44.459 44.9941C44.5928 44.8603 44.7935 44.6596 44.9273 44.5258L44.8604 44.4589C44.7266 44.5927 44.7266 44.5258 44.5928 44.4589ZM43.1878 45.3286C43.1209 45.2617 43.1209 45.2617 43.054 45.1948C42.6525 44.9272 42.2511 45.1948 42.1842 45.2617C42.1173 45.3286 41.7828 45.6632 41.9835 46.1315C41.9835 46.1984 42.0504 46.2653 42.0504 46.2653C42.1173 46.3322 42.1173 46.3991 42.1842 46.3991C42.5856 46.6667 42.9871 46.466 43.054 46.3322C43.1878 46.2653 43.4554 45.9308 43.2547 45.4625C43.2547 45.4625 43.1878 45.3955 43.1878 45.3286ZM42.9871 46.3322C42.7863 46.466 42.5856 46.5329 42.2511 46.1315C42.1173 45.9977 41.8497 45.6632 42.1842 45.3955C42.5187 45.1279 42.7863 45.4625 42.8532 45.5963C43.2547 45.9308 43.1878 46.1315 42.9871 46.3322ZM40.913 46.3322C40.7123 46.466 40.5785 46.7337 40.5785 46.9344H40.6454C40.6454 46.8006 40.7792 46.5998 40.913 46.5329C41.0468 46.466 41.3144 46.3322 41.582 46.6668C41.8497 47.0682 41.7828 47.2689 41.582 47.4027C41.4482 47.5365 41.3813 47.4696 41.3813 47.4027C41.3144 47.2689 41.1806 47.3358 41.1806 47.4027C41.1137 47.4696 41.1137 47.5365 41.1137 47.6034C41.1806 47.7372 41.3813 47.7372 41.6489 47.5365C41.9835 47.2689 42.0504 46.8006 41.7828 46.466C41.582 46.0646 41.1806 46.0646 40.913 46.3322ZM40.7792 47.6034C40.913 47.8041 40.8461 47.938 40.6454 48.0718C40.6454 48.0718 40.6454 48.0718 40.5785 48.0718C40.4446 47.8041 40.2439 47.6034 40.1101 47.3358C40.0432 47.202 39.9763 47.1351 40.1101 47.0013L40.0432 46.9344C39.8425 47.0682 39.7087 47.1351 39.508 47.2689L39.5749 47.3358C39.7087 47.2689 39.7756 47.3358 39.8425 47.4696C39.9763 47.7372 40.177 47.938 40.3108 48.2056C40.3108 48.2056 40.2439 48.2056 40.2439 48.2725C40.0432 48.4063 39.8425 48.4063 39.7087 48.2056L39.6418 48.2725C39.7087 48.4063 39.7756 48.5401 39.8425 48.6739C40.2439 48.4063 40.6454 48.1387 41.0468 47.8711C40.9799 47.7372 40.913 47.6034 40.7792 47.5365C40.8461 47.5365 40.7792 47.5365 40.7792 47.6034ZM39.3742 48.5401C39.2403 48.3394 39.1734 48.2056 39.0396 48.0049C38.9727 47.8711 38.9727 47.8041 39.0396 47.6703L38.9727 47.6034C38.772 47.7372 38.6382 47.8041 38.4375 47.938L38.5044 48.0049C38.6382 47.938 38.7051 48.0049 38.772 48.1387C38.7051 48.4063 38.5713 48.6739 38.4375 48.9415C38.3706 48.8077 38.3037 48.607 38.1698 48.4732C38.1029 48.3394 38.1029 48.2725 38.1698 48.1387C38.1698 48.1387 38.1698 48.0718 38.1029 48.0718C37.9022 48.1387 37.7684 48.2725 37.5677 48.3394L37.6346 48.4063C37.7684 48.3394 37.8353 48.4063 37.9022 48.5401C37.9691 48.7408 38.1029 48.9415 38.1698 49.0754C38.2368 49.2092 38.2368 49.2761 38.1029 49.4099C38.1029 49.4099 38.1029 49.4768 38.1698 49.4768C38.3706 49.4099 38.5713 49.2761 38.772 49.1423C38.772 49.1423 38.772 49.0754 38.7051 49.0754C38.5713 49.1423 38.5044 49.0754 38.4375 49.0084C38.5713 48.7408 38.6382 48.4732 38.772 48.2056C38.8389 48.3394 38.9727 48.4732 39.0396 48.6739C39.1065 48.8077 39.1734 48.8746 39.0396 49.0084L39.1065 49.0754C39.3072 48.9415 39.508 48.8746 39.6418 48.7408L39.5749 48.6739C39.508 48.7408 39.4411 48.6739 39.3742 48.5401ZM19.1687 7.12553C19.0348 7.19244 18.9679 7.05863 18.901 6.99172C18.8341 6.85791 18.7672 6.7241 18.7003 6.59029C18.5665 6.38957 18.4327 6.05504 17.8974 6.32266C17.5629 6.52338 17.496 6.7241 17.5629 6.791C17.6298 6.85791 17.6967 6.85791 17.6967 6.791C17.8305 6.7241 17.7636 6.65719 17.7636 6.59029C17.7636 6.45648 17.8305 6.45648 17.8974 6.38957C18.1651 6.25576 18.232 6.38957 18.3658 6.65719C17.8974 6.92482 17.6298 7.25934 17.8305 7.52697C17.9644 7.72768 18.1651 7.79459 18.4327 7.59387C18.6334 7.46006 18.7003 7.32625 18.7672 7.19244C18.8341 7.25934 18.9679 7.32625 19.1017 7.25934C19.1687 7.19244 19.2356 7.12553 19.2356 7.05863C19.2356 7.05863 19.2356 7.05863 19.1687 7.12553C19.1687 7.05863 19.1687 7.05863 19.1687 7.12553ZM18.4996 7.46006C18.3658 7.52697 18.232 7.52697 18.1651 7.39315C18.0982 7.25934 18.0982 7.05863 18.4996 6.791C18.4996 6.85791 18.5665 6.85791 18.5665 6.92482C18.6334 7.05863 18.7672 7.32625 18.4996 7.46006ZM20.5068 6.32266C20.3061 6.12195 20.1053 5.98814 19.7708 6.05504C19.9046 5.92123 19.8377 5.65361 19.9715 5.5867C20.0384 5.5867 20.1053 5.5867 20.1722 5.65361C20.2391 5.65361 20.2391 5.65361 20.3061 5.5867L20.1722 5.25217H20.1053C19.9046 5.31908 19.8377 5.45289 19.7708 5.72051C19.7708 5.92123 19.7708 6.05504 19.5032 6.12195C19.5032 6.12195 19.5032 6.12195 19.4363 6.12195L19.3694 5.92123C19.3025 5.78742 19.3025 5.72051 19.4363 5.5867C19.4363 5.5867 19.4363 5.5198 19.3694 5.5198C19.1687 5.5867 18.9679 5.72051 18.7672 5.78742C18.7672 5.78742 18.7672 5.85433 18.8341 5.85433C19.0348 5.78742 19.0348 5.85433 19.1017 5.98814C19.1687 6.18885 19.3025 6.38957 19.3694 6.59029C19.4363 6.7241 19.4363 6.791 19.3025 6.92482C19.3025 6.92482 19.3025 6.99172 19.3694 6.99172C19.5701 6.92482 19.7708 6.791 19.9046 6.7241C19.9046 6.7241 19.9046 6.65719 19.8377 6.65719C19.7039 6.7241 19.637 6.65719 19.5701 6.52338C19.5032 6.45648 19.5032 6.32266 19.4363 6.25576C19.4363 6.25576 19.5032 6.25576 19.5032 6.18885C19.7039 6.12195 19.8377 6.18885 19.9715 6.32266C20.1722 6.52338 20.3061 6.65719 20.6406 6.52338C20.7075 6.52338 20.7075 6.45648 20.7744 6.45648V6.38957C20.6406 6.45648 20.6406 6.38957 20.5068 6.32266ZM22.1794 5.92123C22.0456 5.98814 21.9787 5.78742 21.9787 5.78742C21.9118 5.65361 21.9118 5.5198 21.8449 5.38599C21.778 5.11836 21.6442 4.71693 21.1758 4.91765C20.8413 5.05146 20.7075 5.25217 20.7744 5.31908C20.7744 5.38599 20.9082 5.38599 20.9082 5.38599C21.042 5.31908 20.9751 5.25217 20.9751 5.18527C20.9751 5.05146 21.042 5.05146 21.1089 4.98455C21.3765 4.91765 21.4434 5.05146 21.5104 5.31908C21.042 5.5198 20.7075 5.72051 20.8413 6.05504C20.9082 6.25576 21.1089 6.32266 21.3765 6.25576C21.5773 6.18885 21.7111 6.05504 21.778 5.92123C21.8449 5.98814 21.9118 6.05504 22.0456 6.05504C22.1125 6.05504 22.1794 5.98814 22.2463 5.85433C22.3132 5.92123 22.2463 5.92123 22.1794 5.92123C22.2463 5.92123 22.2463 5.92123 22.1794 5.92123ZM21.5104 6.12195C21.3765 6.18885 21.2427 6.12195 21.1758 5.98814C21.1089 5.85433 21.1758 5.5867 21.6442 5.45289C21.6442 5.5198 21.6442 5.5198 21.7111 5.5867C21.7111 5.78742 21.778 6.05504 21.5104 6.12195ZM23.852 5.5198C23.7182 5.5198 23.6513 5.45289 23.6513 5.31908C23.5844 5.11836 23.5844 4.85074 23.5175 4.65002C23.5175 4.51621 23.5175 4.44931 23.6513 4.3824C23.6513 4.3155 23.6513 4.3155 23.6513 4.24859C23.2499 4.3824 22.8485 4.44931 22.5139 4.58312V4.65002C22.5139 4.65002 22.5139 4.65002 22.5808 4.65002C22.5808 4.65002 22.7816 4.58312 22.7816 4.71693C22.7816 4.85074 22.7147 5.11836 22.6477 5.5867C22.6477 5.72051 22.5808 5.85433 22.447 5.85433C22.447 5.85433 22.447 5.85433 22.3801 5.85433C22.3132 5.85433 22.3132 5.92123 22.3132 5.92123C22.3132 5.98814 22.447 6.12195 22.5139 6.12195C22.5808 6.18885 22.7147 6.25576 22.7816 6.25576C22.7816 6.25576 22.7816 6.25576 22.7816 6.18885C22.7816 6.18885 22.7816 6.12195 22.7147 6.12195L22.6477 6.05504C22.6477 5.98814 22.6477 5.92123 22.7816 5.92123C23.1161 5.78742 23.3168 5.78742 23.5844 5.72051C23.7182 5.72051 23.7851 5.72051 23.7851 5.78742C23.7851 5.85433 23.7851 5.92123 23.7851 5.92123V5.98814C23.7851 5.98814 23.7851 6.05504 23.852 5.98814C23.852 5.98814 23.919 5.92123 24.0528 5.72051C24.1197 5.65361 24.1197 5.5867 24.1197 5.5198C24.0528 5.5198 23.919 5.5198 23.852 5.5198ZM22.9154 5.72051C22.7816 5.72051 22.7816 5.72051 22.7816 5.65361C22.7816 5.5867 22.7816 5.5867 22.8485 5.38599C22.9154 4.98455 22.9154 4.85074 22.9823 4.65002C22.9823 4.58312 23.0492 4.51621 23.1161 4.51621H23.183C23.2499 4.91765 23.3168 5.25217 23.3837 5.65361C23.2499 5.65361 23.1161 5.72051 22.9154 5.72051ZM24.9225 5.38599C24.5211 5.45289 24.4542 5.11836 24.3873 4.91765C24.3873 4.85074 24.3873 4.85074 24.3873 4.78384C24.7218 4.71693 24.9894 4.71693 25.324 4.65002C25.324 4.3824 25.1233 4.11478 24.6549 4.11478C24.2535 4.18168 23.9859 4.51621 24.0528 4.98455C24.1197 5.5198 24.588 5.5867 24.8556 5.5198C25.1233 5.5198 25.324 5.31908 25.3909 5.18527L25.324 5.11836C25.2571 5.25217 25.1233 5.38599 24.9225 5.38599ZM24.6549 4.24859C24.7887 4.24859 24.9894 4.3155 24.9894 4.58312C24.7887 4.58312 24.588 4.65002 24.3873 4.65002C24.3873 4.3824 24.5211 4.24859 24.6549 4.24859ZM26.5952 4.98455C26.4614 4.65002 26.2607 4.3155 26.1268 4.04787C25.9261 4.04787 25.7254 4.04787 25.5916 4.04787C25.5916 4.11478 25.5916 4.11478 25.5916 4.18168C25.7923 4.18168 25.7923 4.24859 25.7923 4.3155V5.11836C25.7923 5.18527 25.7254 5.25217 25.6585 5.31908C25.6585 5.38599 25.6585 5.38599 25.6585 5.45289C25.7923 5.45289 25.993 5.45289 26.1268 5.45289C26.1268 5.38599 26.1268 5.38599 26.1268 5.31908C25.993 5.31908 25.9261 5.25217 25.9261 5.11836C25.9261 4.85074 25.9261 4.58312 25.8592 4.24859C25.8592 4.24859 25.8592 4.24859 25.9261 4.24859C26.1268 4.65002 26.3276 4.98455 26.4614 5.38599H26.5283C26.729 4.98455 26.8628 4.65002 27.0635 4.24859C27.0635 4.51621 27.0635 4.71693 27.0635 4.98455C27.0635 5.11836 27.0635 5.25217 26.8628 5.25217C26.8628 5.31908 26.8628 5.31908 26.8628 5.38599C27.0635 5.38599 27.2642 5.38599 27.465 5.38599C27.465 5.31908 27.465 5.31908 27.465 5.25217C27.3311 5.25217 27.3311 5.11836 27.3311 4.98455C27.3311 4.78384 27.3311 4.58312 27.3311 4.3155C27.3311 4.18168 27.3311 4.11478 27.5319 4.04787C27.5319 3.98097 27.5319 3.98097 27.5319 3.91406C27.3311 3.91406 27.1973 3.91406 26.9966 3.91406C26.9297 4.3824 26.729 4.65002 26.5952 4.98455ZM29.2714 4.58312C29.2714 4.44931 29.3383 4.3824 29.4721 4.3824C29.4721 4.3155 29.4721 4.3155 29.4721 4.24859C29.2714 4.24859 29.0038 4.18168 28.8031 4.18168C28.8031 4.24859 28.8031 4.24859 28.8031 4.3155C28.9369 4.3155 29.0038 4.3155 29.0038 4.44931C28.7362 4.58312 28.5354 4.78384 28.2678 4.91765C28.2678 4.71693 28.2678 4.58312 28.3347 4.3824C28.3347 4.24859 28.3347 4.18168 28.5354 4.11478C28.5354 4.04787 28.5354 4.04787 28.5354 3.98097C28.3347 3.98097 28.0671 3.91406 27.8664 3.91406C27.8664 3.98097 27.8664 3.98097 27.8664 4.04787C28.0002 4.04787 28.0671 4.18168 28.0671 4.3155L28.0002 4.98455C28.0002 5.11836 27.9333 5.25217 27.7995 5.25217C27.7995 5.31908 27.7995 5.31908 27.7995 5.38599C28.0002 5.38599 28.2009 5.38599 28.4016 5.45289C28.4016 5.38599 28.4016 5.38599 28.4016 5.31908C28.2678 5.31908 28.2009 5.18527 28.2678 5.11836C28.5354 4.91765 28.7362 4.78384 29.0038 4.65002C29.0038 4.85074 28.9369 4.98455 28.9369 5.18527C28.9369 5.31908 28.87 5.38599 28.7362 5.38599C28.7362 5.45289 28.7362 5.45289 28.7362 5.5198C28.9369 5.5198 29.1376 5.5867 29.3383 5.5867C29.3383 5.5198 29.3383 5.5198 29.3383 5.45289C29.2045 5.45289 29.1376 5.31908 29.2045 5.18527C29.2045 4.98455 29.2045 4.78384 29.2714 4.58312ZM29.7397 4.58312C29.7397 4.78384 29.8736 4.85074 29.9405 4.91765C30.0074 4.98455 30.0743 4.98455 30.1412 4.98455C29.9405 5.05146 29.8736 5.11836 29.7397 5.25217C29.6728 5.38599 29.6059 5.5198 29.4052 5.5198V5.5867C29.4721 5.5867 29.4721 5.5867 29.539 5.5867C29.8736 5.65361 30.0074 5.5198 30.1412 5.31908C30.275 5.11836 30.4088 5.11836 30.5426 5.11836C30.5426 5.25217 30.5426 5.31908 30.5426 5.38599C30.5426 5.5198 30.4757 5.5867 30.3419 5.5867V5.65361C30.4757 5.78742 30.6764 5.78742 30.8771 5.85433V5.78742C30.7433 5.72051 30.7433 5.5867 30.8102 5.45289C30.8771 5.25217 30.944 4.98455 30.944 4.78384C30.944 4.71693 31.011 4.65002 31.1448 4.65002V4.58312C30.944 4.51621 30.6764 4.44931 30.4088 4.3824C29.8736 4.24859 29.7397 4.44931 29.7397 4.58312ZM30.6764 4.51621C30.6764 4.71693 30.6095 4.85074 30.6095 5.05146C30.5426 5.05146 30.4757 4.98455 30.3419 4.98455C30.0743 4.91765 30.0743 4.71693 30.0743 4.71693C30.0743 4.65002 30.1412 4.44931 30.4757 4.51621C30.5426 4.51621 30.6095 4.51621 30.6764 4.51621ZM17.5629 47.8042C17.7636 47.8711 17.6967 48.0049 17.6298 48.2056C17.5629 48.3394 17.496 48.4732 17.4291 48.6739C17.2953 48.4732 17.0946 48.3394 16.9608 48.2725C16.3586 47.938 15.8234 48.1387 15.6227 48.5401C15.2881 49.1423 15.7565 49.6106 16.091 49.8113C16.2917 49.9451 17.0946 50.2797 17.3622 49.6106C17.5629 49.2092 17.7636 48.8077 17.8974 48.4063C17.9644 48.2725 18.0982 48.1387 18.232 48.2056C18.232 48.1387 18.2989 48.1387 18.2989 48.0718C18.0313 47.938 17.8305 47.8711 17.5629 47.7372C17.6298 47.7372 17.6298 47.8042 17.5629 47.8042ZM17.0277 49.4768C16.8939 49.7444 16.5593 49.8113 16.2248 49.6106C15.6227 49.2761 15.8234 48.8746 15.9572 48.607C16.091 48.3394 16.3586 48.0049 16.8939 48.2725C17.0277 48.3394 17.2284 48.4732 17.2953 48.8077C17.2284 49.0754 17.1615 49.2761 17.0277 49.4768ZM15.8903 47.4696C15.8903 47.4027 15.9572 47.3358 15.9572 47.3358C16.091 46.8675 15.7565 46.5998 15.6227 46.5329C15.5558 46.466 15.1543 46.2653 14.7529 46.5998C14.686 46.6668 14.686 46.6667 14.6191 46.7337C14.5522 46.8006 14.5522 46.8675 14.5522 46.9344C14.4184 47.4027 14.7529 47.6703 14.8867 47.7372C15.0205 47.8041 15.4219 48.0049 15.7565 47.6703C15.8234 47.6034 15.8903 47.5365 15.8903 47.4696ZM14.9536 47.6034C14.7529 47.4696 14.6191 47.2689 14.9536 46.8675C15.0205 46.7337 15.2881 46.3991 15.6227 46.5998C15.9572 46.8006 15.7565 47.202 15.6227 47.3358C15.355 47.8041 15.1543 47.7372 14.9536 47.6034ZM14.3514 45.5963C14.1507 45.4625 13.8831 45.3955 13.6824 45.4625V45.5294C13.8162 45.5294 14.0169 45.5963 14.1507 45.6632C14.2845 45.7301 14.4853 45.9977 14.2176 46.3322C13.95 46.7337 13.6824 46.7337 13.4817 46.5998C13.3479 46.466 13.4148 46.3991 13.4148 46.3991C13.4817 46.2653 13.4148 46.1984 13.3479 46.1984C13.281 46.1315 13.2141 46.1315 13.1471 46.1984C13.0802 46.2653 13.0802 46.5329 13.3479 46.7337C13.6824 47.0013 14.1507 46.9344 14.4184 46.5998C14.7529 46.1984 14.6191 45.797 14.3514 45.5963ZM13.2141 44.6596C13.0133 44.4589 12.7457 44.4589 12.545 44.4589V44.5258C12.6788 44.5258 12.8795 44.5927 13.0133 44.7265C13.0802 44.7934 13.3479 45.061 13.0133 45.3955C12.7457 45.7301 12.4112 45.7301 12.2774 45.5963C12.1436 45.4625 12.2105 45.3955 12.2105 45.3955C12.2774 45.2617 12.2105 45.1948 12.2105 45.1948C12.1436 45.1279 12.0767 45.1279 12.0098 45.1948C11.9428 45.2617 11.9428 45.5294 12.2105 45.7301C12.545 45.9977 13.0133 45.9977 13.281 45.6632C13.6155 45.3286 13.4817 44.9272 13.2141 44.6596ZM12.2105 44.3251C12.2774 44.1912 12.4112 44.1912 12.4781 44.2581L12.545 44.1912C12.4112 44.0574 12.2774 43.9236 12.0767 43.7898L12.0098 43.8567C12.0767 43.9905 12.0767 44.0574 12.0098 44.1243C11.7421 44.1243 11.4076 44.0574 11.14 44.0574C11.2738 43.9236 11.4076 43.7898 11.5414 43.7229C11.6752 43.5891 11.7421 43.5891 11.809 43.656L11.8759 43.5891C11.7421 43.4553 11.6083 43.3215 11.4745 43.1208L11.4076 43.1877C11.4745 43.3215 11.4745 43.3884 11.3407 43.4553C11.2069 43.5891 11.0062 43.7229 10.8724 43.9236C10.7385 44.0574 10.6716 44.0574 10.5378 43.9905L10.4709 44.0574C10.6047 44.1912 10.7385 44.392 10.9393 44.5258L11.0062 44.4589C10.9393 44.3251 10.9393 44.2582 11.0062 44.1912C11.2738 44.1912 11.6083 44.2581 11.8759 44.2581C11.7421 44.392 11.6752 44.5258 11.5414 44.5927C11.4076 44.7265 11.4076 44.7265 11.2069 44.6596L11.14 44.7265C11.2738 44.8603 11.4745 44.9941 11.6083 45.1948L11.6752 45.1279C11.5414 44.9941 11.6083 44.9272 11.7421 44.7934C11.9428 44.6596 12.0767 44.4589 12.2105 44.3251ZM8.999 43.2546C8.86519 43.3215 8.93209 43.5222 8.999 43.656C9.06591 43.7229 9.13281 43.7898 9.19972 43.7229C9.26662 43.656 9.26662 43.5891 9.19972 43.5891L9.13281 43.5222C9.13281 43.5222 9.06591 43.5222 9.06591 43.4553C9.06591 43.3884 9.06591 43.3884 9.06591 43.3884C9.13281 43.3215 9.33353 43.4553 9.46734 43.656C9.60115 43.8567 9.73496 44.0574 9.66806 44.1243H9.60115V44.0574C9.60115 44.0574 9.60115 43.9905 9.53425 43.9905C9.46734 43.9236 9.40043 43.9236 9.40043 43.9905C9.33353 44.0574 9.33353 44.1243 9.40043 44.1912C9.53425 44.3251 9.66806 44.3251 9.80187 44.2581C9.86877 44.1912 9.93568 43.9236 9.66806 43.5891C9.33353 43.1877 9.06591 43.1877 8.999 43.2546ZM10.5378 43.5222L11.0062 43.1208C11.14 43.0538 11.2069 42.9869 11.3407 43.0538L11.4076 42.9869C11.2738 42.8531 11.14 42.7193 11.0062 42.5186L10.9393 42.5855C11.0062 42.7193 11.0062 42.7862 10.8724 42.8531C10.6047 42.7862 10.3371 42.7862 10.0026 42.7193C10.1364 42.5855 10.2702 42.5186 10.404 42.3848C10.5378 42.3179 10.6047 42.251 10.7385 42.3848L10.8055 42.3179C10.6716 42.1841 10.5378 41.9834 10.404 41.8495L10.3371 41.9165C10.404 42.0503 10.3371 42.1172 10.2702 42.1841C10.1364 42.3179 9.93568 42.4517 9.80187 42.5855C9.66806 42.6524 9.60115 42.7193 9.46734 42.5855L9.40043 42.6524C9.53425 42.7862 9.66806 42.9869 9.80187 43.1208L9.86877 43.0538C9.80187 42.92 9.80187 42.8531 9.93568 42.7862C10.2033 42.8531 10.5378 42.8531 10.8055 42.92L10.404 43.2546C10.2702 43.3215 10.2033 43.3884 10.0695 43.3215L10.0026 43.3884C10.1364 43.5222 10.2702 43.7229 10.404 43.8567L10.4709 43.7898C10.3371 43.656 10.404 43.5891 10.5378 43.5222ZM9.73496 42.0503C10.0695 41.7826 10.0695 41.3812 9.86877 41.0467C9.73496 40.846 9.46734 40.7122 9.26662 40.7122V40.7791C9.40043 40.7791 9.60115 40.9129 9.66806 41.0467C9.73496 41.1805 9.86877 41.4481 9.53425 41.7157C9.13281 41.9834 8.9321 41.9165 8.79828 41.7157C8.66447 41.5819 8.73138 41.515 8.79828 41.515C8.9321 41.4481 8.86519 41.3143 8.79828 41.3143C8.73138 41.2474 8.66447 41.2474 8.59757 41.2474C8.46376 41.3143 8.46376 41.515 8.66447 41.7826C8.999 42.251 9.40043 42.3179 9.73496 42.0503ZM9.33353 40.5114L9.40043 40.4445C9.26662 40.3107 9.19972 40.11 9.06591 39.9093L8.999 39.9762C9.06591 40.11 8.999 40.1769 8.86519 40.2438C8.79828 40.3107 8.66447 40.3776 8.59757 40.4445L8.53066 40.3776C8.39685 40.1769 8.53066 40.0431 8.59757 39.9093C8.73138 39.6417 8.86519 39.5079 8.66447 39.2402C8.66447 39.1733 8.59757 39.1733 8.59757 39.1064C8.59757 39.1064 8.53066 39.1064 8.53066 39.1733C8.59757 39.374 8.53066 39.374 8.46376 39.4409C8.32994 39.7086 8.19613 39.9093 8.32994 40.1769C8.12923 40.0431 7.92851 40.1769 7.86161 40.0431C7.7947 39.9762 7.86161 39.9093 7.86161 39.8424L7.7947 39.7755C7.66089 39.8424 7.59398 39.9093 7.46017 39.9762C7.46017 39.9762 7.46017 40.0431 7.52708 40.0431C7.66089 40.2438 7.7947 40.2438 7.99542 40.2438C8.19613 40.2438 8.32994 40.1769 8.46376 40.4445C8.46376 40.4445 8.46376 40.4445 8.46376 40.5114C8.39685 40.5783 8.32995 40.5783 8.26304 40.6452C8.12923 40.7122 8.06232 40.7791 7.92851 40.6452L7.86161 40.7122C7.99542 40.9129 8.12923 41.0467 8.19613 41.2474L8.26304 41.1805C8.19613 41.0467 8.26304 40.9798 8.39685 40.9129L8.9321 40.5783C9.13281 40.4445 9.19972 40.3776 9.33353 40.5114ZM7.52708 39.3071C7.46017 39.1733 7.39327 39.2402 7.32636 39.2402C7.19255 39.2402 7.19255 39.1733 7.12564 39.1064C6.99183 38.9057 7.12564 38.7719 7.39327 38.6381C7.66089 39.0395 7.92851 39.374 8.26304 39.1733C8.46376 39.0395 8.53066 38.8388 8.39685 38.5712C8.32994 38.3705 8.12923 38.3036 7.99542 38.2366C8.06232 38.1697 8.12923 38.0359 8.06232 37.9021C7.99542 37.8352 7.92851 37.7683 7.86161 37.7683C7.86161 37.7683 7.86161 37.7683 7.86161 37.8352C7.86161 37.8352 7.92851 37.8352 7.92851 37.9021C7.99542 38.0359 7.86161 38.1028 7.7947 38.1697C7.66089 38.2366 7.52708 38.3036 7.39327 38.3705C7.19255 38.5043 6.85802 38.6381 7.12564 39.1064C7.25945 39.374 7.52708 39.5079 7.59398 39.4409C7.52708 39.4409 7.52708 39.3071 7.52708 39.3071ZM7.52708 38.5712C7.72779 38.4374 7.99542 38.3705 8.12923 38.6381C8.19613 38.7719 8.19613 38.9057 8.06232 38.9726C7.92851 39.0395 7.72779 39.0395 7.46017 38.6381C7.46017 38.5712 7.52708 38.5712 7.52708 38.5712ZM6.99183 37.7014C6.99183 37.6345 6.99183 37.5676 6.92493 37.5007C7.05874 37.6345 7.19255 37.7014 7.32636 37.7014C7.46017 37.7014 7.59398 37.7014 7.7278 37.8352C7.7278 37.8352 7.7947 37.8352 7.7947 37.7683C7.7947 37.7683 7.7947 37.7014 7.7278 37.7014C7.52708 37.3669 7.39327 37.3669 7.12564 37.3669C6.85802 37.3669 6.79112 37.3 6.72421 37.1662C6.72421 37.1662 6.72421 37.1662 6.72421 37.0992C6.79112 37.0323 6.85802 37.0323 6.99183 36.9654C7.12564 36.8985 7.19255 36.8985 7.32636 37.0323C7.32636 37.0323 7.39327 37.0323 7.39327 36.9654C7.32636 36.7647 7.25945 36.564 7.12564 36.3633L7.05874 36.4302C7.12564 36.564 6.99183 36.6309 6.92493 36.6978C6.72421 36.7647 6.45659 36.8985 6.25587 36.9654C6.18897 36.9654 6.12206 37.0323 5.98825 36.8985L5.92134 36.9654C5.98825 37.2331 6.12206 37.4338 6.25587 37.6345C6.45659 38.1028 6.72421 38.1028 6.85802 38.0359C7.05874 37.969 6.99183 37.7683 6.99183 37.7014ZM6.72421 37.7683C6.65731 37.8352 6.45659 37.8352 6.32278 37.5676C6.32278 37.5007 6.25587 37.4338 6.25587 37.3669C6.38968 37.3 6.5904 37.2331 6.72421 37.1662C6.72421 37.2331 6.79111 37.3 6.85802 37.3669C6.92493 37.6345 6.79112 37.7014 6.72421 37.7683Z" fill="#050505"/>
<path d="M26.5282 51.9522C26.3944 51.9522 26.3944 51.8853 26.3944 51.7515V50.2795H26.2606C26.1268 50.4803 25.9929 50.6141 25.8591 50.7479V50.8817C25.926 50.8148 26.0598 50.7479 26.1937 50.6141V51.7515C26.1937 51.8853 26.1937 51.9522 26.0598 51.9522V52.0191H26.5282V51.9522ZM27.3311 50.2795C27.4649 50.2795 27.5318 50.3464 27.6656 50.4134C27.7994 50.5472 27.8663 50.681 27.8663 50.8817C27.8663 51.0155 27.8663 51.1493 27.7994 51.2831C27.7325 51.5507 27.4649 51.9522 26.9965 52.0191V51.9522C27.3311 51.7515 27.5318 51.5507 27.5987 51.2162C27.5318 51.35 27.398 51.35 27.2641 51.35C27.0634 51.35 26.7289 51.2162 26.7289 50.8148C26.7958 50.6141 26.9296 50.2795 27.3311 50.2795ZM27.3311 51.2831C27.398 51.2831 27.6656 51.2831 27.6656 50.8148C27.6656 50.4134 27.4649 50.3464 27.3311 50.3464C27.0634 50.3464 27.0634 50.681 27.0634 50.8148C27.0634 51.2162 27.1972 51.2831 27.3311 51.2831ZM28.6023 52.0191C28.5354 52.0191 28.2677 52.0191 28.1339 51.7515C28.067 51.6177 28.067 51.4838 28.067 51.4169C28.067 51.2831 28.067 51.1493 28.1339 51.0155C28.2008 50.8148 28.4015 50.4134 28.9368 50.2795V50.3464C28.6023 50.5472 28.4015 50.7479 28.3346 51.0824C28.4015 51.0155 28.4685 50.9486 28.6692 50.9486C29.0037 50.9486 29.2044 51.2162 29.2044 51.4838C29.2044 51.8184 28.9368 52.0191 28.6023 52.0191ZM28.6023 51.0824C28.5354 51.0824 28.2677 51.0824 28.2677 51.5507C28.2677 51.9522 28.4685 52.0191 28.6023 52.0191C28.7361 52.0191 28.8699 51.9522 28.8699 51.5507C28.8699 51.1493 28.7361 51.0824 28.6023 51.0824ZM29.6728 51.0824C29.5389 50.9486 29.472 50.8148 29.472 50.681C29.472 50.4803 29.6058 50.2795 29.9404 50.2795C30.208 50.2795 30.3418 50.4803 30.3418 50.6141C30.3418 50.8148 30.1411 50.9486 30.1411 50.9486C30.3418 51.0824 30.4756 51.2162 30.4756 51.4169C30.4756 51.6846 30.2749 51.9522 29.9404 51.9522C29.6058 51.9522 29.4051 51.7515 29.4051 51.4838C29.4051 51.4838 29.4051 51.2162 29.6728 51.0824ZM30.0073 50.9486C30.1411 50.8817 30.208 50.681 30.208 50.6141C30.208 50.4803 30.1411 50.3464 29.9404 50.3464C29.8066 50.3464 29.6728 50.4803 29.6728 50.6141C29.6728 50.7479 29.7397 50.8817 30.0073 50.9486ZM29.7397 51.0824C29.6058 51.2162 29.6058 51.35 29.6058 51.4838C29.6058 51.8184 29.8066 51.8853 29.9404 51.8853C30.1411 51.8853 30.208 51.7515 30.208 51.5507C30.208 51.4169 30.1411 51.2162 29.9404 51.1493C29.8735 51.1493 29.8735 51.1493 29.7397 51.0824Z" fill="#050505"/>
<defs>
<linearGradient id="paint0_linear_524_83" x1="28" y1="10.1818" x2="28" y2="42.4242" gradientUnits="userSpaceOnUse">
<stop stop-color="#B6DDD8"/>
<stop offset="1" stop-color="#B6DDD8" stop-opacity="0"/>
</linearGradient>
</defs>
</svg>
